<mxfile host="Electron" modified="2024-11-17T13:42:07.300Z" agent="Mozilla/5.0 (Windows NT 10.0; Win64; x64) AppleWebKit/537.36 (KHTML, like Gecko) draw.io/24.2.5 Chrome/120.0.6099.109 Electron/28.1.0 Safari/537.36" etag="PcX_7wD_fu6IxI7XMG9m" version="24.2.5" type="device">
  <diagram name="第 1 页" id="NTIZgGaWiGcY6yMIXkHc">
    <mxGraphModel dx="2876" dy="1194" grid="1" gridSize="10" guides="1" tooltips="1" connect="1" arrows="1" fold="1" page="1" pageScale="1" pageWidth="827" pageHeight="1169" math="0" shadow="0">
      <root>
        <mxCell id="0" />
        <mxCell id="1" parent="0" />
        <mxCell id="dN8stk25Ihq2inU-1iYE-1" value="(0,0)" style="whiteSpace=wrap;html=1;aspect=fixed;fillColor=#f5f5f5;fontColor=#333333;strokeColor=#666666;" parent="1" vertex="1">
          <mxGeometry x="120" y="200" width="40" height="40" as="geometry" />
        </mxCell>
        <mxCell id="dN8stk25Ihq2inU-1iYE-2" value="" style="whiteSpace=wrap;html=1;aspect=fixed;fillColor=#f5f5f5;fontColor=#333333;strokeColor=#666666;" parent="1" vertex="1">
          <mxGeometry x="160" y="200" width="40" height="40" as="geometry" />
        </mxCell>
        <mxCell id="dN8stk25Ihq2inU-1iYE-3" value="" style="whiteSpace=wrap;html=1;aspect=fixed;fillColor=#f5f5f5;fontColor=#333333;strokeColor=#666666;" parent="1" vertex="1">
          <mxGeometry x="200" y="200" width="40" height="40" as="geometry" />
        </mxCell>
        <mxCell id="dN8stk25Ihq2inU-1iYE-4" value="" style="whiteSpace=wrap;html=1;aspect=fixed;fillColor=#f5f5f5;fontColor=#333333;strokeColor=#666666;" parent="1" vertex="1">
          <mxGeometry x="240" y="200" width="40" height="40" as="geometry" />
        </mxCell>
        <mxCell id="dN8stk25Ihq2inU-1iYE-5" value="" style="whiteSpace=wrap;html=1;aspect=fixed;fillColor=#f5f5f5;fontColor=#333333;strokeColor=#666666;" parent="1" vertex="1">
          <mxGeometry x="280" y="200" width="40" height="40" as="geometry" />
        </mxCell>
        <mxCell id="dN8stk25Ihq2inU-1iYE-6" value="" style="whiteSpace=wrap;html=1;aspect=fixed;fillColor=#f5f5f5;fontColor=#333333;strokeColor=#666666;" parent="1" vertex="1">
          <mxGeometry x="120" y="240" width="40" height="40" as="geometry" />
        </mxCell>
        <mxCell id="dN8stk25Ihq2inU-1iYE-7" value="" style="whiteSpace=wrap;html=1;aspect=fixed;fillColor=#e1d5e7;strokeColor=#9673a6;dashed=1;" parent="1" vertex="1">
          <mxGeometry x="160" y="240" width="40" height="40" as="geometry" />
        </mxCell>
        <mxCell id="dN8stk25Ihq2inU-1iYE-8" value="" style="whiteSpace=wrap;html=1;aspect=fixed;fillColor=#e1d5e7;strokeColor=#9673a6;" parent="1" vertex="1">
          <mxGeometry x="200" y="240" width="40" height="40" as="geometry" />
        </mxCell>
        <mxCell id="dN8stk25Ihq2inU-1iYE-9" value="" style="whiteSpace=wrap;html=1;aspect=fixed;fillColor=#e1d5e7;strokeColor=#9673a6;" parent="1" vertex="1">
          <mxGeometry x="240" y="240" width="40" height="40" as="geometry" />
        </mxCell>
        <mxCell id="dN8stk25Ihq2inU-1iYE-10" value="" style="whiteSpace=wrap;html=1;aspect=fixed;fillColor=#f5f5f5;fontColor=#333333;strokeColor=#666666;" parent="1" vertex="1">
          <mxGeometry x="280" y="240" width="40" height="40" as="geometry" />
        </mxCell>
        <mxCell id="dN8stk25Ihq2inU-1iYE-11" value="" style="whiteSpace=wrap;html=1;aspect=fixed;fillColor=#f5f5f5;fontColor=#333333;strokeColor=#666666;" parent="1" vertex="1">
          <mxGeometry x="120" y="280" width="40" height="40" as="geometry" />
        </mxCell>
        <mxCell id="dN8stk25Ihq2inU-1iYE-12" value="" style="whiteSpace=wrap;html=1;aspect=fixed;fillColor=#e1d5e7;strokeColor=#9673a6;" parent="1" vertex="1">
          <mxGeometry x="160" y="280" width="40" height="40" as="geometry" />
        </mxCell>
        <mxCell id="dN8stk25Ihq2inU-1iYE-14" value="" style="whiteSpace=wrap;html=1;aspect=fixed;fillColor=#e1d5e7;strokeColor=#9673a6;" parent="1" vertex="1">
          <mxGeometry x="240" y="280" width="40" height="40" as="geometry" />
        </mxCell>
        <mxCell id="dN8stk25Ihq2inU-1iYE-15" value="" style="whiteSpace=wrap;html=1;aspect=fixed;fillColor=#f5f5f5;fontColor=#333333;strokeColor=#666666;" parent="1" vertex="1">
          <mxGeometry x="280" y="280" width="40" height="40" as="geometry" />
        </mxCell>
        <mxCell id="dN8stk25Ihq2inU-1iYE-16" value="" style="whiteSpace=wrap;html=1;aspect=fixed;fillColor=#f5f5f5;fontColor=#333333;strokeColor=#666666;" parent="1" vertex="1">
          <mxGeometry x="120" y="320" width="40" height="40" as="geometry" />
        </mxCell>
        <mxCell id="dN8stk25Ihq2inU-1iYE-17" value="" style="whiteSpace=wrap;html=1;aspect=fixed;fillColor=#e1d5e7;strokeColor=#9673a6;" parent="1" vertex="1">
          <mxGeometry x="160" y="320" width="40" height="40" as="geometry" />
        </mxCell>
        <mxCell id="dN8stk25Ihq2inU-1iYE-18" value="" style="whiteSpace=wrap;html=1;aspect=fixed;fillColor=#e1d5e7;strokeColor=#9673a6;" parent="1" vertex="1">
          <mxGeometry x="200" y="320" width="40" height="40" as="geometry" />
        </mxCell>
        <mxCell id="dN8stk25Ihq2inU-1iYE-19" value="" style="whiteSpace=wrap;html=1;aspect=fixed;fillColor=#e1d5e7;strokeColor=#9673a6;" parent="1" vertex="1">
          <mxGeometry x="240" y="320" width="40" height="40" as="geometry" />
        </mxCell>
        <mxCell id="dN8stk25Ihq2inU-1iYE-20" value="" style="whiteSpace=wrap;html=1;aspect=fixed;fillColor=#f5f5f5;fontColor=#333333;strokeColor=#666666;" parent="1" vertex="1">
          <mxGeometry x="280" y="320" width="40" height="40" as="geometry" />
        </mxCell>
        <mxCell id="dN8stk25Ihq2inU-1iYE-21" value="" style="whiteSpace=wrap;html=1;aspect=fixed;fillColor=#f5f5f5;fontColor=#333333;strokeColor=#666666;" parent="1" vertex="1">
          <mxGeometry x="120" y="360" width="40" height="40" as="geometry" />
        </mxCell>
        <mxCell id="dN8stk25Ihq2inU-1iYE-22" value="" style="whiteSpace=wrap;html=1;aspect=fixed;fillColor=#f5f5f5;fontColor=#333333;strokeColor=#666666;" parent="1" vertex="1">
          <mxGeometry x="160" y="360" width="40" height="40" as="geometry" />
        </mxCell>
        <mxCell id="dN8stk25Ihq2inU-1iYE-23" value="" style="whiteSpace=wrap;html=1;aspect=fixed;fillColor=#f5f5f5;fontColor=#333333;strokeColor=#666666;" parent="1" vertex="1">
          <mxGeometry x="200" y="360" width="40" height="40" as="geometry" />
        </mxCell>
        <mxCell id="dN8stk25Ihq2inU-1iYE-24" value="" style="whiteSpace=wrap;html=1;aspect=fixed;fillColor=#f5f5f5;fontColor=#333333;strokeColor=#666666;" parent="1" vertex="1">
          <mxGeometry x="240" y="360" width="40" height="40" as="geometry" />
        </mxCell>
        <mxCell id="dN8stk25Ihq2inU-1iYE-25" value="" style="whiteSpace=wrap;html=1;aspect=fixed;fillColor=#f5f5f5;fontColor=#333333;strokeColor=#666666;" parent="1" vertex="1">
          <mxGeometry x="280" y="360" width="40" height="40" as="geometry" />
        </mxCell>
        <mxCell id="dN8stk25Ihq2inU-1iYE-26" value="&lt;font style=&quot;font-size: 14px;&quot;&gt;time : 0 | (2,2)&lt;/font&gt;" style="rounded=0;whiteSpace=wrap;html=1;fillColor=#f8cecc;strokeColor=#b85450;" parent="1" vertex="1">
          <mxGeometry x="360" y="200" width="160" height="40" as="geometry" />
        </mxCell>
        <mxCell id="dN8stk25Ihq2inU-1iYE-27" value="" style="rounded=0;whiteSpace=wrap;html=1;" parent="1" vertex="1">
          <mxGeometry x="360" y="240" width="160" height="40" as="geometry" />
        </mxCell>
        <mxCell id="dN8stk25Ihq2inU-1iYE-28" value="" style="rounded=0;whiteSpace=wrap;html=1;" parent="1" vertex="1">
          <mxGeometry x="360" y="280" width="160" height="40" as="geometry" />
        </mxCell>
        <mxCell id="dN8stk25Ihq2inU-1iYE-29" value="" style="rounded=0;whiteSpace=wrap;html=1;" parent="1" vertex="1">
          <mxGeometry x="360" y="320" width="160" height="40" as="geometry" />
        </mxCell>
        <mxCell id="dN8stk25Ihq2inU-1iYE-30" value="" style="rounded=0;whiteSpace=wrap;html=1;" parent="1" vertex="1">
          <mxGeometry x="360" y="360" width="160" height="40" as="geometry" />
        </mxCell>
        <mxCell id="dN8stk25Ihq2inU-1iYE-31" value="&lt;span style=&quot;font-size: 20px;&quot;&gt;&lt;b&gt;Event Queue&lt;/b&gt;&lt;/span&gt;" style="text;html=1;align=center;verticalAlign=middle;whiteSpace=wrap;rounded=0;" parent="1" vertex="1">
          <mxGeometry x="360" y="170" width="160" height="30" as="geometry" />
        </mxCell>
        <mxCell id="dN8stk25Ihq2inU-1iYE-32" value="&lt;span style=&quot;font-size: 20px;&quot;&gt;&lt;b&gt;Grid in time 0&lt;/b&gt;&lt;/span&gt;" style="text;html=1;align=center;verticalAlign=middle;whiteSpace=wrap;rounded=0;" parent="1" vertex="1">
          <mxGeometry x="130" y="170" width="190" height="30" as="geometry" />
        </mxCell>
        <mxCell id="dN8stk25Ihq2inU-1iYE-47" value="" style="group" parent="1" vertex="1" connectable="0">
          <mxGeometry x="169.99999999999997" y="250" width="100" height="100" as="geometry" />
        </mxCell>
        <mxCell id="dN8stk25Ihq2inU-1iYE-33" value="" style="shape=flexArrow;endArrow=classic;html=1;rounded=0;fillColor=#E6E6E6;strokeColor=default;dashed=1;" parent="dN8stk25Ihq2inU-1iYE-47" edge="1">
          <mxGeometry width="50" height="50" relative="1" as="geometry">
            <mxPoint x="49.860000000000014" y="30" as="sourcePoint" />
            <mxPoint x="49.860000000000014" as="targetPoint" />
          </mxGeometry>
        </mxCell>
        <mxCell id="dN8stk25Ihq2inU-1iYE-34" value="" style="shape=flexArrow;endArrow=classic;html=1;rounded=0;fillColor=#E6E6E6;strokeColor=default;dashed=1;" parent="dN8stk25Ihq2inU-1iYE-47" edge="1">
          <mxGeometry width="50" height="50" relative="1" as="geometry">
            <mxPoint x="49.860000000000014" y="70" as="sourcePoint" />
            <mxPoint x="49.860000000000014" y="100" as="targetPoint" />
          </mxGeometry>
        </mxCell>
        <mxCell id="dN8stk25Ihq2inU-1iYE-35" value="" style="shape=flexArrow;endArrow=classic;html=1;rounded=0;fillColor=#E6E6E6;strokeColor=default;dashed=1;" parent="dN8stk25Ihq2inU-1iYE-47" edge="1">
          <mxGeometry width="50" height="50" relative="1" as="geometry">
            <mxPoint x="30" y="50.620000000000005" as="sourcePoint" />
            <mxPoint y="49.370000000000005" as="targetPoint" />
          </mxGeometry>
        </mxCell>
        <mxCell id="dN8stk25Ihq2inU-1iYE-36" value="" style="shape=flexArrow;endArrow=classic;html=1;rounded=0;fillColor=#E6E6E6;strokeColor=default;dashed=1;" parent="dN8stk25Ihq2inU-1iYE-47" edge="1">
          <mxGeometry width="50" height="50" relative="1" as="geometry">
            <mxPoint x="70" y="50.620000000000005" as="sourcePoint" />
            <mxPoint x="100" y="49.370000000000005" as="targetPoint" />
          </mxGeometry>
        </mxCell>
        <mxCell id="dN8stk25Ihq2inU-1iYE-39" value="" style="shape=flexArrow;endArrow=classic;html=1;rounded=0;fillColor=#E6E6E6;strokeColor=default;dashed=1;" parent="dN8stk25Ihq2inU-1iYE-47" edge="1">
          <mxGeometry width="50" height="50" relative="1" as="geometry">
            <mxPoint x="64" y="36" as="sourcePoint" />
            <mxPoint x="85" y="15" as="targetPoint" />
          </mxGeometry>
        </mxCell>
        <mxCell id="dN8stk25Ihq2inU-1iYE-40" value="" style="shape=flexArrow;endArrow=classic;html=1;rounded=0;fillColor=#E6E6E6;strokeColor=default;dashed=1;" parent="dN8stk25Ihq2inU-1iYE-47" edge="1">
          <mxGeometry width="50" height="50" relative="1" as="geometry">
            <mxPoint x="36" y="64" as="sourcePoint" />
            <mxPoint x="15" y="85" as="targetPoint" />
          </mxGeometry>
        </mxCell>
        <mxCell id="dN8stk25Ihq2inU-1iYE-41" value="" style="shape=flexArrow;endArrow=classic;html=1;rounded=0;fillColor=#E6E6E6;strokeColor=default;dashed=1;" parent="dN8stk25Ihq2inU-1iYE-47" edge="1">
          <mxGeometry width="50" height="50" relative="1" as="geometry">
            <mxPoint x="35" y="36" as="sourcePoint" />
            <mxPoint x="15" y="14" as="targetPoint" />
          </mxGeometry>
        </mxCell>
        <mxCell id="dN8stk25Ihq2inU-1iYE-42" value="" style="shape=flexArrow;endArrow=classic;html=1;rounded=0;fillColor=#E6E6E6;strokeColor=default;dashed=1;" parent="dN8stk25Ihq2inU-1iYE-47" edge="1">
          <mxGeometry width="50" height="50" relative="1" as="geometry">
            <mxPoint x="64" y="65" as="sourcePoint" />
            <mxPoint x="86" y="85" as="targetPoint" />
          </mxGeometry>
        </mxCell>
        <mxCell id="dN8stk25Ihq2inU-1iYE-13" value="(2,2)" style="whiteSpace=wrap;html=1;aspect=fixed;fillColor=#f8cecc;strokeColor=#b85450;" parent="1" vertex="1">
          <mxGeometry x="200" y="280" width="40" height="40" as="geometry" />
        </mxCell>
        <mxCell id="dN8stk25Ihq2inU-1iYE-48" value="&lt;div style=&quot;text-align: start;&quot;&gt;&lt;b style=&quot;font-size: 20px; background-color: initial;&quot;&gt;For Each Neighbor&lt;/b&gt;&lt;/div&gt;" style="text;html=1;align=center;verticalAlign=middle;whiteSpace=wrap;rounded=0;" parent="1" vertex="1">
          <mxGeometry x="-160" y="160" width="240" height="30" as="geometry" />
        </mxCell>
        <mxCell id="dN8stk25Ihq2inU-1iYE-104" value="" style="edgeStyle=orthogonalEdgeStyle;rounded=0;orthogonalLoop=1;jettySize=auto;html=1;" parent="1" source="dN8stk25Ihq2inU-1iYE-49" target="dN8stk25Ihq2inU-1iYE-50" edge="1">
          <mxGeometry relative="1" as="geometry" />
        </mxCell>
        <mxCell id="dN8stk25Ihq2inU-1iYE-49" value="&lt;font style=&quot;font-size: 17px;&quot;&gt;Sample:&amp;nbsp;&lt;/font&gt;&lt;span style=&quot;font-size: 17px; background-color: initial;&quot;&gt;WD,WS...&lt;/span&gt;&lt;div&gt;&lt;span style=&quot;font-size: 17px; background-color: initial;&quot;&gt;&lt;br&gt;&lt;/span&gt;&lt;/div&gt;&lt;div&gt;&lt;span style=&quot;font-size: 17px; background-color: initial;&quot;&gt;&lt;br&gt;&lt;/span&gt;&lt;/div&gt;&lt;div&gt;&lt;span style=&quot;font-size: 17px; background-color: initial;&quot;&gt;&lt;br&gt;&lt;/span&gt;&lt;/div&gt;&lt;div&gt;&lt;span style=&quot;font-size: 17px; background-color: initial;&quot;&gt;&lt;br&gt;&lt;/span&gt;&lt;/div&gt;&lt;div&gt;&lt;span style=&quot;font-size: 17px; background-color: initial;&quot;&gt;&lt;br&gt;&lt;/span&gt;&lt;/div&gt;" style="rounded=1;whiteSpace=wrap;html=1;" parent="1" vertex="1">
          <mxGeometry x="-160" y="210" width="240" height="200" as="geometry" />
        </mxCell>
        <mxCell id="dN8stk25Ihq2inU-1iYE-108" value="" style="edgeStyle=orthogonalEdgeStyle;rounded=0;orthogonalLoop=1;jettySize=auto;html=1;entryX=0.5;entryY=0;entryDx=0;entryDy=0;" parent="1" source="dN8stk25Ihq2inU-1iYE-50" target="dN8stk25Ihq2inU-1iYE-52" edge="1">
          <mxGeometry relative="1" as="geometry" />
        </mxCell>
        <mxCell id="dN8stk25Ihq2inU-1iYE-50" value="&lt;span style=&quot;font-size: 17px;&quot;&gt;Probability &amp;gt; Threshold ?&lt;/span&gt;" style="rounded=1;whiteSpace=wrap;html=1;" parent="1" vertex="1">
          <mxGeometry x="-160" y="440" width="240" height="90" as="geometry" />
        </mxCell>
        <mxCell id="dN8stk25Ihq2inU-1iYE-54" value="(0,0)" style="whiteSpace=wrap;html=1;aspect=fixed;fillColor=#f5f5f5;fontColor=#333333;strokeColor=#666666;" parent="1" vertex="1">
          <mxGeometry x="120" y="480" width="40" height="40" as="geometry" />
        </mxCell>
        <mxCell id="dN8stk25Ihq2inU-1iYE-55" value="" style="whiteSpace=wrap;html=1;aspect=fixed;fillColor=#f5f5f5;fontColor=#333333;strokeColor=#666666;" parent="1" vertex="1">
          <mxGeometry x="160" y="480" width="40" height="40" as="geometry" />
        </mxCell>
        <mxCell id="dN8stk25Ihq2inU-1iYE-56" value="" style="whiteSpace=wrap;html=1;aspect=fixed;fillColor=#f5f5f5;fontColor=#333333;strokeColor=#666666;" parent="1" vertex="1">
          <mxGeometry x="200" y="480" width="40" height="40" as="geometry" />
        </mxCell>
        <mxCell id="dN8stk25Ihq2inU-1iYE-57" value="" style="whiteSpace=wrap;html=1;aspect=fixed;fillColor=#f5f5f5;fontColor=#333333;strokeColor=#666666;" parent="1" vertex="1">
          <mxGeometry x="240" y="480" width="40" height="40" as="geometry" />
        </mxCell>
        <mxCell id="dN8stk25Ihq2inU-1iYE-58" value="" style="whiteSpace=wrap;html=1;aspect=fixed;fillColor=#f5f5f5;fontColor=#333333;strokeColor=#666666;" parent="1" vertex="1">
          <mxGeometry x="280" y="480" width="40" height="40" as="geometry" />
        </mxCell>
        <mxCell id="dN8stk25Ihq2inU-1iYE-59" value="" style="whiteSpace=wrap;html=1;aspect=fixed;fillColor=#f5f5f5;fontColor=#333333;strokeColor=#666666;" parent="1" vertex="1">
          <mxGeometry x="120" y="520" width="40" height="40" as="geometry" />
        </mxCell>
        <mxCell id="dN8stk25Ihq2inU-1iYE-60" value="" style="whiteSpace=wrap;html=1;aspect=fixed;fillColor=#d5e8d4;strokeColor=#82b366;dashed=1;" parent="1" vertex="1">
          <mxGeometry x="160" y="520" width="40" height="40" as="geometry" />
        </mxCell>
        <mxCell id="dN8stk25Ihq2inU-1iYE-61" value="" style="whiteSpace=wrap;html=1;aspect=fixed;fillColor=#d5e8d4;strokeColor=#82b366;" parent="1" vertex="1">
          <mxGeometry x="200" y="520" width="40" height="40" as="geometry" />
        </mxCell>
        <mxCell id="dN8stk25Ihq2inU-1iYE-63" value="" style="whiteSpace=wrap;html=1;aspect=fixed;fillColor=#f5f5f5;fontColor=#333333;strokeColor=#666666;" parent="1" vertex="1">
          <mxGeometry x="280" y="520" width="40" height="40" as="geometry" />
        </mxCell>
        <mxCell id="dN8stk25Ihq2inU-1iYE-64" value="" style="whiteSpace=wrap;html=1;aspect=fixed;fillColor=#f5f5f5;fontColor=#333333;strokeColor=#666666;" parent="1" vertex="1">
          <mxGeometry x="120" y="560" width="40" height="40" as="geometry" />
        </mxCell>
        <mxCell id="dN8stk25Ihq2inU-1iYE-65" value="" style="whiteSpace=wrap;html=1;aspect=fixed;fillColor=#d5e8d4;strokeColor=#82b366;" parent="1" vertex="1">
          <mxGeometry x="160" y="560" width="40" height="40" as="geometry" />
        </mxCell>
        <mxCell id="dN8stk25Ihq2inU-1iYE-66" value="" style="whiteSpace=wrap;html=1;aspect=fixed;fillColor=#d5e8d4;strokeColor=#82b366;" parent="1" vertex="1">
          <mxGeometry x="240" y="560" width="40" height="40" as="geometry" />
        </mxCell>
        <mxCell id="dN8stk25Ihq2inU-1iYE-67" value="" style="whiteSpace=wrap;html=1;aspect=fixed;fillColor=#f5f5f5;fontColor=#333333;strokeColor=#666666;" parent="1" vertex="1">
          <mxGeometry x="280" y="560" width="40" height="40" as="geometry" />
        </mxCell>
        <mxCell id="dN8stk25Ihq2inU-1iYE-68" value="" style="whiteSpace=wrap;html=1;aspect=fixed;fillColor=#f5f5f5;fontColor=#333333;strokeColor=#666666;" parent="1" vertex="1">
          <mxGeometry x="120" y="600" width="40" height="40" as="geometry" />
        </mxCell>
        <mxCell id="dN8stk25Ihq2inU-1iYE-70" value="" style="whiteSpace=wrap;html=1;aspect=fixed;fillColor=#d5e8d4;strokeColor=#82b366;" parent="1" vertex="1">
          <mxGeometry x="200" y="600" width="40" height="40" as="geometry" />
        </mxCell>
        <mxCell id="dN8stk25Ihq2inU-1iYE-71" value="" style="whiteSpace=wrap;html=1;aspect=fixed;fillColor=#d5e8d4;strokeColor=#82b366;" parent="1" vertex="1">
          <mxGeometry x="240" y="600" width="40" height="40" as="geometry" />
        </mxCell>
        <mxCell id="dN8stk25Ihq2inU-1iYE-72" value="" style="whiteSpace=wrap;html=1;aspect=fixed;fillColor=#f5f5f5;fontColor=#333333;strokeColor=#666666;" parent="1" vertex="1">
          <mxGeometry x="280" y="600" width="40" height="40" as="geometry" />
        </mxCell>
        <mxCell id="dN8stk25Ihq2inU-1iYE-73" value="" style="whiteSpace=wrap;html=1;aspect=fixed;fillColor=#f5f5f5;fontColor=#333333;strokeColor=#666666;direction=west;" parent="1" vertex="1">
          <mxGeometry x="120" y="640" width="40" height="40" as="geometry" />
        </mxCell>
        <mxCell id="dN8stk25Ihq2inU-1iYE-74" value="" style="whiteSpace=wrap;html=1;aspect=fixed;fillColor=#f5f5f5;fontColor=#333333;strokeColor=#666666;" parent="1" vertex="1">
          <mxGeometry x="160" y="640" width="40" height="40" as="geometry" />
        </mxCell>
        <mxCell id="dN8stk25Ihq2inU-1iYE-75" value="" style="whiteSpace=wrap;html=1;aspect=fixed;fillColor=#f5f5f5;fontColor=#333333;strokeColor=#666666;" parent="1" vertex="1">
          <mxGeometry x="200" y="640" width="40" height="40" as="geometry" />
        </mxCell>
        <mxCell id="dN8stk25Ihq2inU-1iYE-76" value="" style="whiteSpace=wrap;html=1;aspect=fixed;fillColor=#f5f5f5;fontColor=#333333;strokeColor=#666666;" parent="1" vertex="1">
          <mxGeometry x="240" y="640" width="40" height="40" as="geometry" />
        </mxCell>
        <mxCell id="dN8stk25Ihq2inU-1iYE-77" value="" style="whiteSpace=wrap;html=1;aspect=fixed;fillColor=#f5f5f5;fontColor=#333333;strokeColor=#666666;" parent="1" vertex="1">
          <mxGeometry x="280" y="640" width="40" height="40" as="geometry" />
        </mxCell>
        <mxCell id="dN8stk25Ihq2inU-1iYE-78" value="&lt;font style=&quot;font-size: 14px;&quot;&gt;time : 0 | (2,2)&lt;/font&gt;" style="rounded=0;whiteSpace=wrap;html=1;fillColor=#f8cecc;strokeColor=#b85450;" parent="1" vertex="1">
          <mxGeometry x="360" y="480" width="160" height="40" as="geometry" />
        </mxCell>
        <mxCell id="dN8stk25Ihq2inU-1iYE-81" value="" style="rounded=0;whiteSpace=wrap;html=1;" parent="1" vertex="1">
          <mxGeometry x="360" y="600" width="160" height="40" as="geometry" />
        </mxCell>
        <mxCell id="dN8stk25Ihq2inU-1iYE-82" value="" style="rounded=0;whiteSpace=wrap;html=1;" parent="1" vertex="1">
          <mxGeometry x="360" y="640" width="160" height="40" as="geometry" />
        </mxCell>
        <mxCell id="dN8stk25Ihq2inU-1iYE-83" value="&lt;span style=&quot;font-size: 20px;&quot;&gt;&lt;b&gt;Event Queue&lt;/b&gt;&lt;/span&gt;" style="text;html=1;align=center;verticalAlign=middle;whiteSpace=wrap;rounded=0;" parent="1" vertex="1">
          <mxGeometry x="360" y="450" width="160" height="30" as="geometry" />
        </mxCell>
        <mxCell id="dN8stk25Ihq2inU-1iYE-84" value="&lt;span style=&quot;font-size: 20px;&quot;&gt;&lt;b&gt;Grid in time 1&lt;/b&gt;&lt;/span&gt;" style="text;html=1;align=center;verticalAlign=middle;whiteSpace=wrap;rounded=0;" parent="1" vertex="1">
          <mxGeometry x="130" y="450" width="190" height="30" as="geometry" />
        </mxCell>
        <mxCell id="dN8stk25Ihq2inU-1iYE-85" value="" style="group" parent="1" vertex="1" connectable="0">
          <mxGeometry x="169.99999999999997" y="530" width="100" height="100" as="geometry" />
        </mxCell>
        <mxCell id="dN8stk25Ihq2inU-1iYE-86" value="" style="shape=flexArrow;endArrow=classic;html=1;rounded=0;fillColor=#E6E6E6;strokeColor=default;dashed=1;" parent="dN8stk25Ihq2inU-1iYE-85" edge="1">
          <mxGeometry width="50" height="50" relative="1" as="geometry">
            <mxPoint x="49.860000000000014" y="30" as="sourcePoint" />
            <mxPoint x="49.860000000000014" as="targetPoint" />
          </mxGeometry>
        </mxCell>
        <mxCell id="dN8stk25Ihq2inU-1iYE-87" value="" style="shape=flexArrow;endArrow=classic;html=1;rounded=0;fillColor=#E6E6E6;strokeColor=default;dashed=1;" parent="dN8stk25Ihq2inU-1iYE-85" edge="1">
          <mxGeometry width="50" height="50" relative="1" as="geometry">
            <mxPoint x="49.860000000000014" y="70" as="sourcePoint" />
            <mxPoint x="49.860000000000014" y="100" as="targetPoint" />
          </mxGeometry>
        </mxCell>
        <mxCell id="dN8stk25Ihq2inU-1iYE-88" value="" style="shape=flexArrow;endArrow=classic;html=1;rounded=0;fillColor=#E6E6E6;strokeColor=default;dashed=1;" parent="dN8stk25Ihq2inU-1iYE-85" edge="1">
          <mxGeometry width="50" height="50" relative="1" as="geometry">
            <mxPoint x="30" y="50.620000000000005" as="sourcePoint" />
            <mxPoint y="49.370000000000005" as="targetPoint" />
          </mxGeometry>
        </mxCell>
        <mxCell id="dN8stk25Ihq2inU-1iYE-89" value="" style="shape=flexArrow;endArrow=classic;html=1;rounded=0;fillColor=#E6E6E6;strokeColor=default;dashed=1;" parent="dN8stk25Ihq2inU-1iYE-85" edge="1">
          <mxGeometry width="50" height="50" relative="1" as="geometry">
            <mxPoint x="70" y="50.620000000000005" as="sourcePoint" />
            <mxPoint x="100" y="49.370000000000005" as="targetPoint" />
          </mxGeometry>
        </mxCell>
        <mxCell id="dN8stk25Ihq2inU-1iYE-90" value="" style="shape=flexArrow;endArrow=classic;html=1;rounded=0;fillColor=#E6E6E6;strokeColor=default;dashed=1;" parent="dN8stk25Ihq2inU-1iYE-85" edge="1">
          <mxGeometry width="50" height="50" relative="1" as="geometry">
            <mxPoint x="64" y="36" as="sourcePoint" />
            <mxPoint x="85" y="15" as="targetPoint" />
          </mxGeometry>
        </mxCell>
        <mxCell id="dN8stk25Ihq2inU-1iYE-91" value="" style="shape=flexArrow;endArrow=classic;html=1;rounded=0;fillColor=#E6E6E6;strokeColor=default;dashed=1;" parent="dN8stk25Ihq2inU-1iYE-85" edge="1">
          <mxGeometry width="50" height="50" relative="1" as="geometry">
            <mxPoint x="36" y="64" as="sourcePoint" />
            <mxPoint x="15" y="85" as="targetPoint" />
          </mxGeometry>
        </mxCell>
        <mxCell id="dN8stk25Ihq2inU-1iYE-92" value="" style="shape=flexArrow;endArrow=classic;html=1;rounded=0;fillColor=#E6E6E6;strokeColor=default;dashed=1;" parent="dN8stk25Ihq2inU-1iYE-85" edge="1">
          <mxGeometry width="50" height="50" relative="1" as="geometry">
            <mxPoint x="35" y="36" as="sourcePoint" />
            <mxPoint x="15" y="14" as="targetPoint" />
          </mxGeometry>
        </mxCell>
        <mxCell id="dN8stk25Ihq2inU-1iYE-93" value="" style="shape=flexArrow;endArrow=classic;html=1;rounded=0;fillColor=#E6E6E6;strokeColor=default;dashed=1;" parent="dN8stk25Ihq2inU-1iYE-85" edge="1">
          <mxGeometry width="50" height="50" relative="1" as="geometry">
            <mxPoint x="64" y="65" as="sourcePoint" />
            <mxPoint x="86" y="85" as="targetPoint" />
          </mxGeometry>
        </mxCell>
        <mxCell id="dN8stk25Ihq2inU-1iYE-94" value="(2,2)" style="whiteSpace=wrap;html=1;aspect=fixed;fillColor=#f8cecc;strokeColor=#b85450;" parent="1" vertex="1">
          <mxGeometry x="200" y="560" width="40" height="40" as="geometry" />
        </mxCell>
        <mxCell id="dN8stk25Ihq2inU-1iYE-69" value="(1,3)" style="whiteSpace=wrap;html=1;aspect=fixed;fillColor=#f8cecc;strokeColor=#b85450;" parent="1" vertex="1">
          <mxGeometry x="160" y="600" width="40" height="40" as="geometry" />
        </mxCell>
        <mxCell id="dN8stk25Ihq2inU-1iYE-62" value="(3,1)" style="whiteSpace=wrap;html=1;aspect=fixed;fillColor=#f8cecc;strokeColor=#b85450;" parent="1" vertex="1">
          <mxGeometry x="240" y="520" width="40" height="40" as="geometry" />
        </mxCell>
        <mxCell id="dN8stk25Ihq2inU-1iYE-96" value="&lt;font style=&quot;font-size: 14px;&quot;&gt;time : 1 | (3,1)&lt;/font&gt;" style="rounded=0;whiteSpace=wrap;html=1;fillColor=#f8cecc;strokeColor=#b85450;" parent="1" vertex="1">
          <mxGeometry x="360" y="520" width="160" height="40" as="geometry" />
        </mxCell>
        <mxCell id="dN8stk25Ihq2inU-1iYE-97" value="&lt;font style=&quot;font-size: 14px;&quot;&gt;time : 1 | (1,3)&lt;/font&gt;" style="rounded=0;whiteSpace=wrap;html=1;fillColor=#f8cecc;strokeColor=#b85450;" parent="1" vertex="1">
          <mxGeometry x="360" y="560" width="160" height="40" as="geometry" />
        </mxCell>
        <mxCell id="dN8stk25Ihq2inU-1iYE-99" value="" style="group" parent="1" vertex="1" connectable="0">
          <mxGeometry x="-100" y="280" width="120" height="120" as="geometry" />
        </mxCell>
        <mxCell id="dN8stk25Ihq2inU-1iYE-100" value="burning with changed outer conditions&lt;div&gt;&lt;br&gt;&lt;/div&gt;&lt;div&gt;&lt;br&gt;&lt;/div&gt;&lt;div&gt;&lt;br&gt;&lt;/div&gt;" style="whiteSpace=wrap;html=1;aspect=fixed;" parent="dN8stk25Ihq2inU-1iYE-99" vertex="1">
          <mxGeometry width="120" height="120" as="geometry" />
        </mxCell>
        <mxCell id="dN8stk25Ihq2inU-1iYE-101" value="" style="shape=image;verticalLabelPosition=bottom;labelBackgroundColor=default;verticalAlign=top;aspect=fixed;imageAspect=0;image=data:image/png,iVBORw0KGgoAAAANSUhEUgAAA2EAAAGHCAMAAAAOUKq7AAAAAXNSR0IArs4c6QAAAARnQU1BAACxjwv8YQUAAAMAUExURf///wAAAPf3997m3ggQEAAIAFpaUt7W1u/v78XFxc7O1oSEhCEhGUpSUlpaY3tzezExMRAQGbWtrSkpIZylnKWtrTE6OoSEjLW1vc7OxTpCOpyUnGNrY5SUjEpCSs5KjM5KWs5KvWtzc84Z784ZEIxK74xKEKXenIwZMTFKa/fWxc5K785KEFIZEKWEzs57EJR7EFrvpTp7pRDvpRnvEFrFpRB7pRDFpRnFEGt7zhB7Yxl7EM4ZMUIZ5ggZ5kIZrQgZrYxKMWucnKXevWN7nFrv5s57Qjp75hDv5lrvEM7vEJR7QpTvEFoZWlrF5hB75hDF5lrFEM7FEJTFEFp7EBAZWs5KMVIZMZwZjKWt5qWE75wZWq3v5s6cEJScEJwZvTFKGXsZjHsZWq3O5nsZvUJK5ghK5kJKrQhKrb0ZjL2EnL0ZWr0ZvXvvpTqcpTHvpRnvMSnvY3vFpRCcpTHFpRnFMSnFY2t77xCcYxl7MWuczjF7YxmcEAjvYwjFYxBKENZ7a1pKENZ7zq17axBKWmMZ5ikZ5mMZrSkZrVqUc5xKjJxKWpxKvVqUUntKjHtKWntKvc7vc3vv5lrvc86cQjqc5jHv5lrvMc7vMZScQpTvMZTvc5wZ79bvpVoZe3vF5hCc5jHF5lrFMc7FMZTFMc7Fc1rFc5TFc1p7MRAZe5wZEFqcEDEZWs7vUlrvUpTvUnsZ79bOpc7FUlrFUpTFUnsZEGuc7zGcYxmcMWNK5ilK5mNKrSlKrd4ZjN6EnN4ZWt4ZvdatzhBKMdaca1pKMfdajNatnISca/daOvcZjPcZOvecjPecOtZ7762ca5x7nBBKe/daY/daEPcZY/cZEPecY/ecEFqcMTEZe/dC5vcQ5vdCtfcQtfdz5vdztffejFpCc/feOvfeY/feENat7/el5veltTEQEFpaexAQMdbmxc7v5hApMQgpEPfO9zEQOoR7pff/OoRzY/f/vRAAId7O787O797v94SEaxkQAN733tbFxRkQEBAAAO///wAAADO9NKoAAAEAdFJOU////////////////////////////////////////////////////////////////////////////////////////////////////////////////////////////////////////////////////////////////////////////////////////////////////////////////////////////////////////////////////////////////////////////////////////////////////////////////////////////////////////////////////wBT9wclAAAACXBIWXMAABcRAAAXEQHKJvM/AAA3HUlEQVR4Xu2dXVOjzPP3BRRRUMDICoIc7Jv6vf+ju2or+z/Y0rq0Vrfub/dMEswjJEBH0x93FcgDMExPP0zPzJmiKIqiKIqiKIqiKIqiKIqiKIqiKIqiKIqiKIqiKIqiKIqiKMrXI6vCwG4qitI3QeREl3ZbUZS+CRInvbbbiqL0DXSYk9ttRVH6Bjos8uy2oih9E0w/Eo10KMpQQIephCnKYHgTJy3stqIofQMdppEORRmMYOIkGulQlIFwocMm6ocpylAEkZMErt1RFKVnKJaoVqKiDAV02NRTHaYow0B+mGb+KspgcI+z6jBFGYjLSP0wRRmO3FEdpijDEUycqeowRRkI14uc/2mPs6IMxVWqOkxRhkNzOhRlSDSnQ1GGRHWYogwI5XSoDlOUwVAdpigDojpMUQYlmKoOU5ThCP7nRCphijIULxMdvaIow+EmzlQlTFGGwpvAD7PbiqL0jcYSFWVI/iMdppEORRkInZFUUYbkKlUdpijD8Td1Ip3NTVGGgufpsNuKovTNneNMXuy2oih9k6kOU5QBIStRY4mKMhSkw1TCFGUo4IephCnKYFyRH6bRekUZiAISpgKmKL3jeZeel5WV40QlyP6+eJ6rsqYoB+N6efizqpMkmTw7cybYr+P8qrDvUhSlM66bh3UdpVaqVvlIo7oqC9VlitKVwCviZPphRekTb/bvjOckzj3th1aUtgRFHtdWfIg0SqL6xq+q2Cc/LM+q2vf9pKncnh/D7FJ1maLsJsjqqZUbkP7wX++8F+tvNTN/X4o89OvIvg9EfqYypijbgW344Vjj8OMRTtan7i+SsP/sNvNCAca5lD3XpVqLirKR4CqeW37RDaTLHp/jRc5kNacjyMPEfspJVJEpynq8cOZ8pXVYrB2kUjxvyK2HkNUz4awzHaSpKEu43oM19tKk2tjLRStDbMxLLObhkUmokyoqShNvZue93WZbUnthJUZbRmAGpW8VWRKqHlOUGZeh1V+/b6/sofUUqXO+PY2jiN/NVyWhBj0UBbi5VTyp/7TLuCMdtmv0yvVMXKNqu7gqyinw8sfI13uV77brePSK3d5MMJPZqNTBZMppE4QTloW0aiUL12nLEZiez1/rJLk9oCinSG6jf9VVu7iE237e+szI2IeGFZWTpfhpjLmb1oqmyzrObmn8samqMeUk+VeaAP17+ySMjus4BxWPKHv2dRSZcnr8NVZc6n/KM9xBFx1G5OYkUdnhM4ryDQisAvO7mXCd1w8LShNJqVWNKaeE1S3JfUfd8tJ9/TDvzzmdKgpVjSmnQlByhCPtnnUBHTbtpMMIG7BUNaacCN7+Nb6rH2bwbjni8UODisopkHEQPa32SRss3jv6YRZzzg9NVVS+PUHIFmKU2f1u7D3n72VFZ3VqVWPK9+blD9f0fXuoXpJ1Y5xbkRnf78nuKsp3pDAx+tDuduYOamjfmGDB7t9HbHcV5fth3KFk/6BeDvW3d9Q9iOnse+tPRTlyvFueQyo+INzAa2Du37FlJVydMeU7UnAvc1ra3b2Aldi9P6zBtenp3ttKVZSjxeiP34fpD+iw/3XJY1zB5Zjis8Y7lO9GzqG8+q/d3RPosJ2zCOzA9BbEB36LohwVgZlpNN7fhTKwH2a39yVXZ0z5bhRsm+3Zy9ykl3WcAw7bvx9+NYpyHJhesOja7h7AgbFEi2cEXrWY8j0wAlb34fnkh/thTEhX9K7jMpXvgBmqUtm9w+hHh4GcBmamB/uFiiJNUJJ8HdYLtqAXP4wxivWPJtsrXxszFiy9s7uH0psOg4jxMoC1Tm+vfGVM2C7tLWzXlx9G/OUZPCLNUlS+LkaD1b/s7uFAh/10+9I6l3x1B+QhK4osVsB69HXgh/U4+uSafbFE149QvibFDxawvqw6AjqsT4E1WYpJDx11ijI6xgfrVcBIh/m9hv84m0sNReULYkzEQwaDrYFjiXa7H+5VxJSviGuWF+p7IFZ//WFz7ljE1BdTvhY5BxF6H4bVY3/YHJ4iR7WY8pVwPR4h0v9Q4j77w+Zw1kmiSYrK18FosJ4ypZoMocPOzl7pap/v7Z6iHDvFQBqM/bA+o/UWl9dWT9VQVL4GJoo4gAYbIpZo4Hne1BdTvgRmlP4w0zkNEEs08OwdySCtgqL0Cke/h9FgQ/lhhJl0W0VMOXZYg/U1HGyFQWKJBm4Z1BdTjhwTph8sLDecDrNaTH0x5ah5GSSTY8FgfhhhsjtUxJTjxaRKDejMDKnDZlpMM+2VY2VoDTawDlMtphw33g0J2KDhuGF1mJ3lTUVMOUqGyab/zICxRIOKmHKsDJjJsWBoHWZHPQ+QmaUohxGMoMEG98MIFrFbFTHlyOCKWQ1dMaHDbodUYcBosaGbCkXpBk+d/fhi9wYDOmzwus8ipiuzKEcFD2IcwXuBDhteu7jkUaa6MotyPBgBG9hBIsbQYWdnHg0gHWSUjKLswxMJ2GSMGjmODjNL4vqDBi0VpTXlBepjDwtctmAcHWbbDI3ZK0dBSAL2e5zp0EbRYcRYjqWi7IKn9Oxt+aIdjKXDbHLH4L0PirILnvWmv+WLdjCaDrNzguuYZ0UYrogfvc88uonxdJjJAvvQbjFFlOAntfRjVfoxdRi0Mw9l0TUyFUECngVtRG8lH1OcecoRzbNXBOGImz9iKz+mDrOzKI55e4ryifw3auB0zEZ+RD+MMOnMKmKKDNk76t/kr90bhXF12FnAItbjuraK0p4CAvYxqgYbXYeZPPtzjdkrArw8ovJFo2qw0XUYtBglAUeaZ6+MjhnTPHbrPrYOg6YmEdOhLMrYBDyv1Mi1XUCHnZ1dPeNGRxk4oCgLOG1v/EB27jiV3RwNk2evAUVlTHgxoDGGXC4BHTZ+wnv4hpsdLTFMUc7Oyg8ZASM/TCDfnWP2us6zMho8BHjoWdXWAh0m0DvF6c268JEyFpcUp38WyTqHDvtjN8eEY/aaoaiMg2nRZYZ1CMQSGdbatd1RlCEx+fSDrcG3Hegwmel4Ido65FkZhXuqaxKmGoGKLtQ19YduWzMUlcHhQVOPUo354GuvbOQfBxRFTFTllOB8+khsmUiR/jADRzs0fUoZFrMQulw1gx/mS+lPk6Eoo0GVE4Fnh0kFTSVBHWYNZF9FTBkMs/DP6ImBDSgvUUzCzKwCOk2pMhQu1zBBG5F1mKAGNfev4zGVgcgoG9F5k5xCcPzxYU2MhDk6h6IyCDy7r3B+HnSYWKRjLmHJpd1XlB4x00yDcdaAWA90WDL4QpsbebUlIJL0rHxzTLIUkNZhgnkVVASUoKgTvCn9wwLmJ6hikpGO3HFe7aYAVAahpk8pQ5BR21293MjrMNlIRxr8oymAhIYWKN8WM4V74D46zpuwDhOUMPLDvLMXyu0Yexo75XtjliEJODdPVIfBRJPWYTaoKhjSVL4d89XqaEPUD3sSlTCaYIvCiLBVNdqh9IcJI5Jz70nrMHk/jAP1XCCa26H0REZLofPMUjTRr7QfJhut/2AJ+48zoCWbGuUbwW6HHfdIrbhkxcL5BVUH3b1xv9gxVVdM6QPvB7XXNjoNP0jUD7txLgRTSkwskeHei1hdMeVgeAWIefcPSZikDqtFT/8Td28ljOftOJdsbJTvAQ8JW/SvhsJ+mO+kgjoMZWH8MGAK5s7uKcp+mDDi3PUJYDEK6zCpeeQICJX1w0DA7qlGO5SD4KXQFz0/tOqqqB8Gk1U2Wj/zwwD3imm0QzkE9ucnDX9eOpYIP0xQwBexRIb1u0Y7lP0JeCHZpkQdgR8mKOCNWCJh1lEX1KnKF4dnlvo8LQck7IRjiaTDGhLGRqtseShfGo6WfW6ij8APExw3AgmbxxIZTticqogpe1GSE7Y0Qb20H3YjOhHPkh8GOLdD12RR9uEvVZ7lCepRx9QPa8LB1lgDikpnrmmcYb086wxZiZI6TDSW+K+Z0zGDox2aZq90heNkq/kTR+CHyfU4UxrHZz8MuOSKRZJlonxFNi3DJx9LFI50LPlhoODVaJYFT1G2ckcC5q92psr7YeI5HSuFwrkdPHxOUVqS/95QaagVF9Rh/6DDhMc4rwlq0OQCzq3dUZTdcFfz2qTWV3k/TFDCyDddp6tYxDTaobTFCNjadS6PwA8TrMkU51knYdzxrK6Y0hZqqjdU5Ad5P0x2zt+VWCLDbZIuLKa0g3M5Nsw3cwQ6TNoPW5tLz7kdfzTNXmlBThos2dAelyfth3Es0W4vwbkdgh0JypeBpkTcPDpeWIcdQSxxg4S5Eyo2yYWflK+BWUl2Y2P8JO+HCc6X+LrJDwPXPLO/RjuU7QS8ds/mtdDVD9sYzmAR02iHsh3oqK3VRHq+RHk/bPOaKzqbvbIT9te3Te5y8jpsW3ccCkc7npVt3E1RRZJtEgQdJjnprrAOo/Fh2+KF1CumIqZsxGtMUL8BjSVuKx7ueJ5I6njlqNmSyzHjtGOJZAZuLR9uozTaoayHnbAHu7OBh5P3w7a3L2ZSAbujKE3yNpO6HEEsUXYE5tsOBcV2gGAjoBwtBc/LsavH9FZeh8lK2PkOCaOVrp2pLqOuLGOSpXapJ5oEWHquKcHTr5lragXuePbXDv1RThge4bR7rR5aTEw4lpgK6oddsUSGlwzdlDmtnCrkwy/PProGEkRhP0wwu/Yf2peNeYkLTG6H3VEUIn9DpVgz8c0y/8GWFPXDbiRPzxq8hXLi5kpHsigL2D1voxyoS1XYD3sTTCm5RTHt1mHcDm1PjVFOCw9tc7tsH4p0CMcSJXUY2cgtJOzsTmezV5pwxmqrPhyXZFHS/pFdxxkF1cIPA2wnaq+YYuiQh8CtuOTq4PLrh62fp2MJnpNcp9pWmPIcteHxP7u3A+FovXB/GKmmVjrMLKMuGnVVjgUOI0aXdm8X1IoLShj1hwmentZeadnRdcWumPaKKZzL0d6eoTHQkgOgRP0wXmZldd769VBJbR3MqpwEJlmqfewCvv6FpISJ6jBa3ahVLJFpHz9SvjEc9Oow2oJy62X9MMn+MJRWu1giQ3FX0eZIkYcFrOpgyqBhFp0UUDSng73Q9oVlDPC2VqXyHTFDwrpUgVJ8no5zwdO3ya1vwFNtaw7wCXNHq4StXcRoI6TDJK1E+f6wDhJ2lpGI6YjnU8X1aCLoqJtKILNSOKdDtj+sgx8G2AqPVYudJmZIWMf6SgEyQedduD+smx8GKPqoWuxU4Yf/ZHfa8iQcHoMOE5Swjn4Y4EROjdmfJJyN2HnxYdJh93Zbglp08ExXPwyYOSglXVdFBl6Gr/sC+pSpIDl8FypBdiacbn4YuKJ5lH/ovB2nBsfp95jygnSYpFtRi87j1NkPIzh9SheMODG8Rzz1jz20AarLCY9x7u6HEdQqqSt2WvDwpb3MLeFY4hfrDzOYoK1kP70yNqgpexp78n6YZFXdxw8DnD6l83acDnady736QUmH/bTbAny1/jALe72JZiieCjkJ2PZFjDZyBDpM0A3czw8D9yRiLWbLU74DB/XQCOuwL+mHERrtOB1oWs39oxWn7Yf93M8PI6jUI8mMTmUsOIy4d2tKbbGkhInqMJ5pa880Xl4womOatfIV4VwO3+5050FYwmT9MGqd9tRhRsSSfT+tfBXKCzzn7slSc6RjibKZv/v7YYAaJ50a57vDGmz/SmLyhTunC/eIuITt64cBI2J2R/mW8NyIHWaWWoV02O5FkAbDFfXD/sFK3NcPI9gF1qlxvjGcW/B2UEBLXodJxrwpIHhAvzGtXONclGoofle6zo24DtJhsnmJgqennsRDdJh9AoJmrjIgLregh46ugg6TrCFB7VzIxRI5hfegaKCZfUoHi31LbDai3dsXiqYJSlhx7vyWGx9GOuz5IAkzK9BqtONbYiJZB6bGSa+B6aWCOR0uLahyQCyRMFPj7Jd1rRw1OXd4HvpkaTlaUR32LHn6F/LDDpMwm7SmE7x9O3ixnT3z6RuQDpNMqvDeJE9POqzTDMlrocWgReecVAaAFxbuYYYLcR12LjlvE/lhjwdLGGsxXR/ze1GQifh+uAPj/ifvhwmuehdMezC0NUPxG+L9wCPtpR+JOnQEdZh7/eHc2G0BSIdFPQg4m+yS/fZKv7hs+b/avYPg8RuyOkzOSuRY4mH9YRYej6npU98Gfp71P7t3EDQLnKgflkqaVxRLfO7DSOWua12877tQfpCA9VMvqWoI+2GCEtabDjMzOaiIfQ94RFhf1VLYD6P+sEgu54jk4r2fQAuvLKbrY34DXCNgfQmFuB/25kzldNj/TfuJdBA8+5RmKH55ghjP0an/s7sHIx5LpHC5WMNPOqy3nMKMxurpHIpfHV6VoCcfjDgCP+zwpIq9CSb96TBrKOpMwF8bXiPssUezivIRJP2wv6lkYjrpsLQ/FcpPx3dVi31ZXF5hpVe36Qj6w4RjiX2mlHCe/U+VsC9LAafJSXtdsVI8lpg6k0u7PT4cY+9RwkwqgK7y/FX5R92afT8/1AlhP+xZcHzYFO1LnyqUe541z/6L4h6wwspmQmEd9iF5etJhSa9GHadka57914Tj9L1PgEmzCMjqMLnTc15izyVqRj2oFvt6mI6w/lcPltZhkDC50/czAvMzV6rFviYsYLd9azCOMAv7YZFYpIN12G3fjdZfOHcqYl8No8F6GCy4AlmJckrEhQ4T7g/rf1kMNhQlTW+lO5zKMchSOpUjOWEh6TA5CeNY4gALWebPAzWHylCYxO1BVM0rmltBv7x4ltZhQwxNpsVrdVWWLwRP3DbQtILQjm+Cw5ouU8HcevbDBpkmhG0OFbGvAgvYUGPtheethx8mmfmLku0/PEuw36wi9jVgARtMCtDaSi6kLOyHoWgH8MOASe4QnEZLac0da7DBhEA+p0NSwuDfDjRFFK/K4jzZPeV4GVaDGT9MMNIBHSZnJZr+MLvTN7wyTvpg95RjhTXYkGvYkR8m2NKSHyZnStFcU8NYiYC1WKqT4xw3VAWGXSQSOuxctj9sIje3xWCxRMaskKmG4jHj8boeg67CKh1LfJYcgTlMTsccKGjVYkfNHQekhl3mmHpuJP2wN8ke54FyOuYYJ1q12LGSUwrp0OuIS+uw4UINLRgqp2MOJ+OkpVgsR9kGzxkwtIDx7C1Dn2MLwv1hE0jYoNWfRUwHPR8l2fsYAibdH3YtmlvPOR12eyDMRKWCJaxswJjww2uX2HHOBXM6LkV1GIUihvTDCJO1rVrs2Bi8H2yGdE7HuaQOG9wPI1iLaUTxyOBBfKP4R5TTITw+TCwOMMwY5xWMFtMRmceESWobJQAhrcNEx4dRh/7AfhjBWuxRZ7Q/Hl5G6AebUULCBJtXUT+MIx1jqFDWYolqsWPh13gajGcROF0/bCQdpr7YUeFejdHRPAdW4sn6YazDhvfDCF76SLIpU+bk4/SDzThpP2yUWKKhZENRfTF5xosiGoT9sOtvnZfYxPhicqtgKIZ8TB+MENZh3mhKZB0D59Z/hiegUi0mzFiZHAtk+8Nc4bxEFPdoA0BdXl1MV3oWZbRMjgXyftiNbKRjPAEPeHUxweFwyvgajHWY9NorYmmRI+V0zAmMFlNfTIggJl94ZAET12Hi64eN5ocBWjVbtZgUHi/AN7aAHUFeouT6YSPGEhmzDG2imfYCFD+47EevbdI6THT9sBH7wyzGUNTsjvG5ZAETmIb5CPwwMQkbN5ZoyWhhFp27Y2zMjAES+UPysUTB048bS7RojuL4uB5rsFsJD1jaD3sT9cPGjSVa7kjELlTERuSKNVglMvettA47d37/tduj446WW/8Z1mKSa0qdGpwUOsQazW2ADhOe81dw6Re2EgVMcxYx56dG7cehvEBpi9nl0GFObLfHxy0c511OhZIOE0mLNBOJ6fpiY+CWNHLo+d7ujg50mPNqtwWAFhHWYeP7YcS1WV9M0D4/FTzTPyImYNJ+mOtLnn7snI4GvGyEMxU00E+DnMs5urO7ApAOE5wv8QwSJqjDplI6DOe+oUf/LvjoT4GcPd7hFrhsAXTYuWAST5BI67B3KWeI2jYYEGOnyZ0UJpfeiSRjSnjOz5JpctBhsv1hqVTp04oBIA013jEQQWYEzJlKDmeADrsQtFSCWjqno7bbo2MlTDKU+80xg1WA4CKQxlaRtBIhYWJGskhe4hySsJob2Uo7xgbALG+ZTvBL1EqU7Q87O7uR9sPEJjHgGJOZ+EinFugfk+ob3V3jr9xi/IBaUklnW9YPE4wlcskXtiLofMA945bcdNWFZI+MQViHyccSxUqfdBhu3XSMaa59r3jGBaNU3xc0YYLTmZnnLJjTIToCk/0wsSmHjQ4D1Mg5b6E6Y71h5kSMMnq0p67Drt+kY4li7ZvVYeCBG1zNUuwL0wv2wxSuR54AbwlBz1nwAoTn6ZDWYTaMalZ7rlWL9UFQ/m6Wpjc5Ah0meAEFlLmclZhJ3vxCh52d3Wm8oy+8mIpyMdryklbDt9si0HMW9LKhwwTnrSc18mC3R+cBJ593BZp4R5SppXggJjbbCI/TM5bWYYKOkPDaK6TDxLoqqEN0YReaZU81v+NAzHQBzYXpScKkdZhgcruwDiMJE/PDUBceX+w2MLOVOrFqsf0JeDSzM2mqDGE3SF6HCSZVmPZNKmUsgISlzYzUID6n6lFL5mF/bcxYsOfPE96I67BKfM5fYR0mpsDJnvl8cpNC5ZSqxvYhiDmGuDyaWVyHxafsh1H7JhXmcUnClkreJKsKzTr2xbExxMmyCSCuw8hKFNZhUo6QcKRjVYeduWaNMacW9Iy/KCaNY80wBfXDJBsYat+kbn6dDoOpY/I7Iu0Z64ZJ9E3L1dZaXIfhAk7bDxO7+bUShmtiEUtjTfBoT26s62Sd6j95HSbuhwn0QAVc4Bsk7KzgiJjO9NYa104WsH5WevXDJBesE+oP88J/+L3GDzMEFauxJFM11gYbHko4k34VcR2GyxP2w5JALNQh1L5dUqzQJVW1oeQzU2k0274FpQlxbLSqqRWV1mHCftjp6TADSdGmmKGNKWoq8C5sjH5LZOgSJuRJ+2GpYG496zCp0qecjs2BTJcuDY9GJ8nZisnicPwtpUQJn6IShicp6Ie50GGCaZGiOmyjH2aw7ruqsc0UZq6AZGvSAOkw0Zlw5GOJgrcvGWda3x/WIDAGkK4ztgnbybyjX4PGOAuaSZw1JbwG5qn6YTt0GDBqLK3klPwRYye72ZmTQyMwBavY2dmrqA5zXyaSRqqkH7ZThwHvlitRpGpshcx6YDvr7hWaqVtX0Eyk8WGSpr7o6kZHrsOA9cZ2V6TTorCx1hZjwskPE0xqEPfDZOf8PWo/zBAYY0jXj2gQhFwmb20CrS75YaISBh0m6YeJzvnLOiyW0mE/cPI2HpaNSNc6h4chsBGOpN1QVfGZcB6EdZjo2iukwyTHh7VbscCskwqP0RP0Jo4HG+Fom/BC/WFi6+sQR+CHyYXK2A+z26NDT75dLZmltmrf2FlgIxytgz8u+WGJpPoX9sNccR0mJWGkw1qvrGQme3PSE58nx/0Vv1E5PLdPdeHVP8RWsCKE/bDgUdwPs9uj00XCZvn2p+2NvZSmEJIuS0qSH3YjaV5LxxJFo/XSfliXtjXD+4mTnYsqeHrkAki7raFxiXITzemQ98Pe5G5fuj+sk/XixR9cw05zopzAjmN2qo7VhdZekV7H+bT9MMn+sPRXJ/HOfJ5R0UlObr63IDdWcnrbtbJwf5i0DhPuDzuXiyUWeGzHndOxRGEb8tOSsbn+utlDUjgv8YR1mGx/mOjqbVRrut+6HdJ7UZ1M5N71/pgAx8VekVT2wyTXyYYOE1QiXM/kXPdjWT+sC15sOsc+qtNYXt2LYeYR/n5tyjH4YYJV/OxfLbi+EJe+WEYNSdhe6vvqhmuck7w2Fpb4nrheaNqT1M/3tItpHedPS0WMDXSY6CBr6DCxWXe5N1Isp4MkbL+2zbWpis4k/taJVPC/rHwdMESOWlFpP0xUwuCHyXkUon4YtW37dnd7YW3CitFPycozKK73+sz3+FZ36WFeQj6WSCsxSi4LBx0mNr5Qdh1nKvkDxNvMDYzaE0pWn+HIbo3+curDWmCKJYr6YdSSSg6hhb0jZiVypGMqNf41R8kfokDz2IQVnWn87eKKRenbBsQ/sF/Cpdx60VjiEeiwV7s5OqzDGiu9jouHOnSYieo92WY+9b+TIguKn1a80mrf+MYC8THO8LfPJTPdoMPkVOgLSr8+E9Jh3vvhbdvLTMacJPwuwftLOwDMieo+Gj+KJYqOwIwd50Oy/RMdH8Z+mN0eHTp5dbB0Bw8zGfsWs5cG+Uy+kp5WnxGNZgHvEY9GUML+nW5Ox6F+2IwgtP4YVcqvHbz3yhse/+U4790S6DfDfpikDgtgpZ3sGGfuD7uVqpR3z32JdxDa/jFn6n/h8WN5PLG38djjsjPS89YHlawOE85L/H+C7Zv3u78YU5DbPA/n4/FLru0XBPe1NQ8v6l7Tmqk/TFSH+Sc815RsTkfwjsa1NwXq5rUdPuZEVf7FhKzI5uor6jw+ZTtuiWIR1WFkJcrqsN+yOkysx5mi9X/sdi9cVZOZkCXl11neD+I1C9ac1/1HRCXHABIBrAthP+xZLpb4f9BhUynHhSTsZ7/i/ZLNTC3KWfwKQuaVNvUQpFU+QGtHYwB7bcg6cgQ6TDiWKGYlHt7jvI55pgdI4qujjnt4RZzMW4Q6HKalzXEG0f6w11Oe8zeA9S8VS3S5x3mAk3vz6D0az6Q60uBi4BU/o7l4pcPFQKVT28Xn/L1x0l92c3xIh4lZEMPoMCLI5lEPACH7+5+Us7meoMjqhXhFj0MmVuZvwjrsCRL2VXRYsNLOra84rZdep7SK7fM9NU/pBt7qFSwfWLwDb996HaTD0nUn966ysvj8gneVX3mB9+Lx4SAP5z5WHq9tH/NwlppOpO/V8XhlRRbXC9/LX3Nh3qV3vfNq3WJRut6WkiYrcXtD5jUy74OsLIulb3NxPZde4c4frfd3cXXe3bpH2KSbDnNxAUslgqdtzxFkiyjxZdkyvaC1H+aVce0/fIpDB+VstgqvLJ9m2ZVB2Ho+B9Jhayv5jCC+yWb3cXVbJ/Vyim3mxyXOjV98YXlY1z/tO7x6e28X6bC31UKyRt6nMYcuLYdZ+0mdUF3xfNoL+aOwczcVX1FWC3MRTOKy/YMeCLQN/tReD0jipZaECOJkMp0kSzlgeVX95H8VPWc3CP2ojq1oFPVPs7GOe5xnqw7z6mg2uiMISfmnyeceA6+mC5qi+E1XY/gjSurZWjjxznHqVRc/rKyhcp8nzVlYUEk/eJcSCz6S2Vx+ldPyS9vmdFyZB/NWN96dz+IUObeJdr3ssvU0hKY/bNubIQV2EVzXDmd3ok+THpgl9AjKXzbzy09NmYfbU5ppCWvHWT65a+fPxnka+dj8VibFnll91gz6KR3/H/1dD1qlubYgIr8S648Oguy1nuBGrAEL7bW2246i2/wemqV/0QBRq2KgB+LRwjV4iynpaltJ7xzEX86jXfOy/7RopkuzatqLRuXj9g0YFzpPH3dUNsraaq3DyGlk0sXTp/ORMAU/zUumwhatPYyWOix/xz3WNOnrYqwPyRWfJvvA88KFcNdWkLbXyTvyEl0X7Y99nYo5CUtK42y2HfNnQhMCQOKT8mliHryX7liPIKCiX3kLxCeNM5pRqnEbBW67qm7RgKMq4UqqqwzlhuvAd+y4We+qEVwkoh+JD427o170iftSFDBA5q2E85Ym8cbIBp5jFJeUB5bmDaMc+1HCP2jEXd85jx/C1PlBTzzfuhQ4PePNOiz4SyNZrYRB1tIQLQE+0WykcTgJw6cw9KkNh9EXlxmuknVpbdTLFrrkJaICpWHBk9fNKw8NL+NzoRJUQQAZJNkO6rTtqNJ2fhhV9Tj4d1ZAZ8xEgtJRTNn6XKdREKRewvYjOl2KJW7sD8tjdmVsjzTKiYxPupBF6bt4fHUQFPDP6FjlRPiDY9Skxjsn4fgDe2D55PhwSmPmqeVb3McllTGugy+l4tIvUnq9bNOS4QKrhG6lQZr8ifNiduFDgZIpsrKa5WswUVSV/9nX14D2gxUI6ZPEHCJwuw0xwt4T/mTOM8oYVXhbSW9rRYMYZwFGwgI0n/xN9JFFsaCepQuVhjaNjP+XCX8o3GpCGKjNbNfm46FfsDAEqAXWViM30lSJ2ImoBPD48TtsnXDXMrceomDW2sK5ExvIYGOJbtOzQ8xqKskgndB2O6gonxsGwScgS4Rt/1J7AbTwdEO5pM693eQCYqHw6c/VTlvVhdZf8cPQTJiiW9guAG3bohni26Scq/Ds8oJEuhVBFi9LGZj6tV9mJRzoy92xhU64RfYa19PP50yhPnecB6Vu5AVF25he4zpqNDhnV6mRgAkV1nYV5uKTG3XYpfUJTUmjMtviRDu+uEoozMYJYLDz9cXUzu02IQDM1JZ+GL57Yi4ApWAMXzQfidGX2GJvMyOdECTtI/BoINpIWGRLyUWjYy4X5QEdQxomSBsSFm+zyZfgMc4fm5545oc/8brVYeZUfAG/F+WFFnfRfrq3fJFuQkVR7y57squXBWRewfDNC+0aOtO/7sxrCVnWM+ct66KvgXuZVatCxqQJ7C8/jiv7b9+xI4GHn/ypqus6pcbXui9MUsE0XL7fFdDi/uWNYtGOAzgCi4KGhL2RrwC7Caos2V5/0VRt1mFPMLxhLZi6lb/Z4iTDbjFRHvYan8fzp/4dczDc+M0NYNe11WHvM82EUjBG4Cs+C1VCd/hq2uw/1B7ErVUYf9fu07tBbKMrEHNjoUL91LhbKhvcLf3h2p5fRDvV9gKSsIYFsAQkCsrDlmFmgoUUmmq0aDGuvghnMboMe66LR1rigzvLngzOdPFVhvLcDuzFtyyMpMp595P3xATm0YAnsY9fEPvOKV/XdrG/XbSpErA+iyDwrgr6ycLKv/nzIwILh2vGFH5My2zkOLKhJ+iehg5DNS2La5i1vAdr4bY4u+a6k+0oaZIwI0HrQPmjAltrobDng/ps1ApUubqs4spWADy18PoX13ovauMMkYRtbQNmuGe59U7RuhgLCGokpgskKxFX5RcFmuUQ9XZzrV2hbX8YV8WAfC/TzrDuS0zpQrb8smIdvzWstAzrsGS5kjcJPmY6jKD2OXE+GnoDN08VKv3BwVv3kZQBdGsAk77R5G4AH17RYcGlOULN6OJOjLeA89xSwZpZptISlad9SzaHzlo/lWE93SZrLZ5JWD+mz4+ma8tMu7ZCGtUUZvnokm84KxFUzMbisNhji86m3kNs0kecGY/ifUdlQ8XcLoMokIU9fubBb0RNaswfB01piLgXaBZwrNyWla29DmOCkjKh2fOic+HSKuudQbYJPPOHFrVrDowuYxXspqjoeZkaj2LBSayEnZUXdOoEKqz18r6Emc3N7qyF4jeL2vHwTuLUmLiHI8tsDjmsev5S8CXFJ8qml74BcgJXdJilwI0uQpEwgylYSpWVM1AymHRVgbrDgRWv28y/eOBGflwvz3yQpLgrvocGLXpQ6HLWc/HsREldhWEBoxHf/Ltt2GuBWxr5mUFXbUr6nSqXy9P305KgO2M92/ww5rOEUQP06cxkx+Dx8txXrFhe4DukCZrUIm21PjRagy55iaRzbZsAD5B6fkxdp5v+kabUD1qkrBZa1nToohZPk+FSNqtnQWtR8z23kLP4kcbt4ZJwL17ecoYilrCtq5W/4OkshMBcQEOGKeBeFR61evZ9WXz/1z0LJs8efP37cptpRNPwrOgwxg3xfbavh3BhEtIzoqdvWk3uzo+pIjzAenxqWdYMNamfSjzwvCIrnl7jOPTr5DGpk+RTf9AmZorV8g7zMPpR3Va3cZZlnmuvyaUi7iph/3i15mY1R9Pll1d5iePm2zycBCVkWpm8DOeJActsiyUyKJCGBJZs5KKxnkP2Or6dJxAxNkORUQVza1JNRVmW29eoogLvoMMy6jPkxsOFD0Lap7I9znhUOd27qeVXsb+5y6NJu1giU1S31HJBiL0J13MbOWX4XFBh1MI7ab2I8G3DVPIt5XN50Xw6ZEHgE7eL+yqpg4r+pp/mEyLzLajIdGp2kC9Brfs6HRY81VDJfmOglBs+cY0nG3lRGYr0t0tD1IHta28FiSmFuhc0riGAYAS4zzbfdxUmJI9V9VQ+PT3BS7q+XpOhQRLWpYIRPJh0+skCm2UO/QcRa8oLG2rUIG1aG3T3PB2QgIYO+3dZUGfX28JMdMOFC97U7Wyjcx5C5G+7wa55iS+/rmi16pAiL3yrsXPRMFpR8HS9fM+tZmvF3awvmrVQb+Bz7t7ah/b42cYLatjkd3zqdgtFUk7H2zYj6/K56YcRNCj907M3kP9rN/G1EyhG1ORJAntiYxmQhF2sXiUvEXaz5hQABsvihilqajzQWdvaClLETe1wAAHRFNA1uD9QA7sNq6TKE9lavcIdXluckZrUf7j/CIW2oaR3ztOBB/WpFuG+PrVkc9xJ0z/1yPqBfotogNu2ARr4/osOVZyBVN6Qw+dnpf+IGvdYLkQbKuyaHnz9hDZ8srstbKfDFvPy4p6quw8YwnX9SGkCdbKojNyqTGBRFX/a1SKyINYbapZfs6J2i1ktwQWsqc+448VjLHFyj4Q8KKYfG58uNa6rOqxAeaYm53AVeO1z0/+a7CN4wnhruD258jN44J2a1EMhndmpgtEH6nmdWC4J2C2NbvoQX+29kxMMz3VJTixUzNs6zOh85hl75axc0JJFdrMJ3rlQJhwwr536P05n2nKHaNLa9ofFsxlK/kMt/o+a2jmLeM4V1TScGAeyixYhqXaxxNKf5dMVJNj2rIZ5FQ4eocSvzvl2KudxdwDAxBK3VU7IidFhWRrZy0TpzyWMwtVmyzqGTDBBo1GaWPPTlu/HA/tYeREHGx6YoYjt3TcljMQYBU3tC07e3tOhCtyTDmsF6slzuwpmwPVFDQ1u2taAfC4GRbCo/HlUB9Bq7EpvaGbcNjrMnK90LuxZ0PLOTxJk84TpuqGNvRR1Pr/gKN/18w4Ja2kmo/G2d059UZ6fkmubUqd9dLto1clQCzijhwp3d+PVToehFOxXXaEqB5Xv11H9mKQUYpt/PKNW7M5E8VDB50K/GZKwLWnZKLvZ01loLijw+d0uigQXOD/K11GYboB81nW4Blg3K5WCnu1KecxPnn3MG2qI8RUZDPQCXm9xsxbyJkacx5z9sA6RjvxiuQCoiCA+VnvgXue6yk2oCY+Niiqdt7USxjP22Z21zOsWGirb9DStcTTpVgUGvxsRIM5syE1z7r1tq+i44pZGA1oP2xZcUrdvUFxTF2Cj8hPshbkmbQwSNq91G2mX04FbtqWE05li+OUu9bbDesaN5PMWbffXsg7bmtzkPVsTG7dsE1pgHd/jZByvxGXZ/u+Gie5yOkeQpiR8T1t6tGHKrlQKPOXZs6Xe1SCMcbfw2LjWUeLcrERz1mYldYsFN7NsnzaQ+7f7sfQG9TREHcbYQuXZRsvArh41a0Z5u/e16RwiTKS+dKYm4rbeVL6iKb3s9lpQo8zrKHsjQdQZiTodZE/wflBeF+aKmv5ukVJDjubDXMGWHnpy6lrqMApN8zvJBVuUQtU0AvAe0qM+X2puU7i20TIvEU07V1gqjkbvyifb2/S/QmhuAzK+G69shGKJW10YsknNFoq3Llw3wAWQUOVv09glHeL4sEb/Nm39J9MYxM7v0ovTzWOoKaeDS6sJvj6tDRHODAmnMqeH5Ic0cGwyy1jx+RHgUVxQn28Hs8/7GNVK7BhLvI6ccz+Of8ZxVlzRx/LyKee29K0MXNfD7nw2xSD5IP8fTzzJPNhi6+WIrMR2Oow8tqT0Cupro2d8/8zNL775Ii68nAIq8xvxjUdGQuehnm/phSWxadsfRgZleM0jBBsNf+xMFlW+NBWS2vYsRMu7sf2e0zKnI6fBKzGnQjeqR9Lo9kcDz/ePAnv//dzuW0mHbTWw4IfZ6kHNyjNnBL1RTwDaO9Ib1DP8+7GGIRLNgj2wSvgT9LwgH9NGfHcJXOlS3Jwf2RycgJL/8fgpRs3Mhw153A+EvxA+FHaHYB3psK2+Z79QEXewElGuht9hGZIs5U8hWwvRY3mfZ09PZTaPenF/IDCB603xPG/6sV2HochtXTHDDAmOtEA1UdiSNJphMWRvlqplX0s2P2Qeyta2ifGoY9V8Y6P6QjvPjQAvshrhnt+54rKvAZfYqu+K+viJ+XhUAHtsMf6NPX+CBh2mk0+mxiYCuvtttc1L3mcLgHg+D8L4XfMIzCKKeAheYNa5eo/ndfxuFj30/kzfJ3+2FAGe4GeLCOR1lPj+Df3wEOmy5m4HN/OTNKVEDsvVrE/0X+b7re51BlWKaLx5OzrqsDypfzwmj0kS3+Xcr+tlGSeSFVkJ9VXeXwUw7vmt3sTa7WconKTepJdzWIlbdVhWz+tpwR2uaW0Sn4ubxAyzpA4yJ03+LNqxeHZLblzjWrc10lTe7YO3NB3fM26m+Y15XM4fVz7v9ivCOJ4NtN4KLr5d77BX4V6WbiZrTKFSzos4yLM1XZ9rgVp2tkx3APPE5poS/z28zgfiu97sFEWJO21UoWAxJ7S7/TKucPLVeuFtGDwV/P30bW1TzVZBibeJAvUE6bAu/WHcx0bMemhgi5sn5BWFxwNHXZMjEGSN/PfNSftw4bbrMHzYbgDUnWyeRTl/Iciy7NPEeJeLerfl1Ax3yrRvYtziflsiUND9ycEPayvgXO69QjbyVh02KLClV3TYCEDCRrQSXerfa1/B1rL82DtVg515iQNDOqxLXmLv4Hkv+yIjQmb0eO35EiRhAvd+3DpsDe7ylAedJIyyCrbrsGHpqMP6B3VcbJVZDjZsjqYPjZAOQ4kn3dLxD2GfvMQlFtOoWTqZSjkcZWkd1t4PGwC0qCP2zizzumWM8+CQHyagw26/hA5rOMcrOqzTND5XkLBT1mH/IOGbokAjQDqs9fylfSNnJY7nh7k9+GE20jFnReK28lf9MAlLaQZ1SZ2gDuuSxnQgZCUe6IfR3MlNGQs6SRj1pErqMErEEZw4nuat3534MRysw+x2g760mksRZ/fTYFT4FDO34m4hYQEUKQ/NMu+mX/bHtT9nwTX9ou28BBkFVmk3D4orLwg8OnhfZtRvhL+L/2Yjfq1+1PXjjzjkTs2k9nG8uk3qx8YP7Zn/SZeh4riMxbuXi479sKVGjN9OV28wB83X0I/dmGGD8wsaZ+P3LqB9vgISSXuIovW3dtY6Ki/zl/7Q7zXgLSusObbwDu2BVdwXmseErMRs3Zda6Nqa4K30bi/wPH6JHu7iPZ53yQfot/1S7/LFu74svOvZ2wn3Bf88Oo7zV7xh//M3z3bMf7wTG/P/5qd5ZP6/fIqfsvscn/L+0pHZlxRh1vi++X+voFkASrx3dqjMiziOKx+/DKGXZw/FVVa+5tnsUBnmZZbF5ezARn7SWPr49s908X3xJEnSqOJNml91+sqbfhrFPk2tFvt1FFfJj+h3SnnV+HmfRu92k37o19vFBZ6aPfKWgugdcsNHnTdsmG3z326swD3lm9mt2YvMUMZVXaFAmPiP3SDCMMvDZ5zqyR5g7uKbqizDKqQpDEAdmuN/aj/MQVHkZVX5ZUHV6NLz0KDcZVnBO/STP81Ohu+afQlR35ZZ6IfVAz4f4hv4GE/iHd3WfhWGcV1VtY+LrPFCHN/wO1bAiyusO4a7wAU84eFtoo6chPuwHfN5/v35V+3X6eJIgzrCp58ffZ+m8LZfgHaRppJ49n0q1NknbiOHahJIsTed3OI3vhYfXTN9H62CGNXPnx9+yhNUKKPSwlPDc++ZNObR0g9PNFmAM43LB/xUsPJoj7KoHh6eHv7saBoUZU/MjDtgsardDNJlySRZLGlCpPXsjVFd/yDTj+bgoMmEIrPJ5qDZ/JFUr3H9mCT+Y31DR1tY7v23ez4ZtRAx/KIvn7DaMS/hrkN+9SfdU5okybs5PBqdBJumFsLPRQqLosH584V5pcG5/Us0X4Bl4jgf589vTorf9nP4ucCPg+/lr7bHPs75LThC3/BxPnuX+dSnj9OsR/TO+QHzXfjI/CeiUWGNn7fHyo+iaAqDzK8TWAFQkZV/W91OcOB28Q/G2bOTNA9F9Okoqp0owmdu+VP2H/2YLfNl+Eev4yeJzHHzz/xMH8n6sG+wP7ewhPA7hn35EPN+CLsyKzN4P2X8FNLbycogU4f/xxm/LYxj7Nzl9Cu7g2PFf7O78r4o8BfHcxiuOGCP00fzv7+uYVN5AQy3nH74ffDO6N30AbxEP2Ske152d81bfIgP0ysQmZmvQMeMEG0lnpqJ5CeTqR+GNQoy9CPamkBCqQjC8KmC1Nvp5umHZIaIa/N3ifz619Wv4rr4VXiwMOld96V5hb6qzO9xW2EFMz0vPJiS9pUWwJCzWwYyGYk4sRsMvIEH+psV/McAe5ZK1EPp2yOWPLcba8jhplz+IpP2unzC5x4K/soSh8jahdPCFnRc4j7hONsPlTleyq+wmeX5Fd5ZZNe/Lsklwuf+evgHm5l+sQdETk7Bu5e/+C14Zw5/iApn/j78xjXwxy+xhf8BvUAukT2AV4yLZQ7wB+DZzffoddd1Pfh0qCT/8J89UBNfIA/Z5TAUO74w63nJJXsIR1Arr1/wfS8efcge5d/4Y7bsl5kd+gk87DQP4I/n8RuBOcJHP9HcN9vr5k2lb96fgz68Dygmi92z12DDFOZ6KL9wAR9qBX2FeSZzUMaeWNfKMaNlonTG5s8ryulwdvb/AVQqLee75pnlAAAAAElFTkSuQmCC;" parent="dN8stk25Ihq2inU-1iYE-99" vertex="1">
          <mxGeometry x="4.690000000000055" y="60" width="110.62" height="50" as="geometry" />
        </mxCell>
        <mxCell id="dN8stk25Ihq2inU-1iYE-107" value="" style="group" parent="1" vertex="1" connectable="0">
          <mxGeometry x="-160" y="560" width="240" height="120" as="geometry" />
        </mxCell>
        <mxCell id="dN8stk25Ihq2inU-1iYE-52" value="&lt;font style=&quot;font-size: 17px;&quot;&gt;Ignite OR NOT&lt;/font&gt;&lt;div&gt;&lt;font style=&quot;font-size: 17px;&quot;&gt;&lt;br&gt;&lt;/font&gt;&lt;/div&gt;&lt;div&gt;&lt;font style=&quot;font-size: 17px;&quot;&gt;&lt;br&gt;&lt;/font&gt;&lt;/div&gt;&lt;div&gt;&lt;font style=&quot;font-size: 17px;&quot;&gt;&lt;br&gt;&lt;/font&gt;&lt;/div&gt;" style="rounded=1;whiteSpace=wrap;html=1;" parent="dN8stk25Ihq2inU-1iYE-107" vertex="1">
          <mxGeometry width="240" height="120" as="geometry" />
        </mxCell>
        <mxCell id="dN8stk25Ihq2inU-1iYE-102" value="" style="whiteSpace=wrap;html=1;aspect=fixed;fillColor=#f8cecc;strokeColor=#b85450;" parent="dN8stk25Ihq2inU-1iYE-107" vertex="1">
          <mxGeometry x="60" y="60" width="40" height="40" as="geometry" />
        </mxCell>
        <mxCell id="dN8stk25Ihq2inU-1iYE-103" value="" style="whiteSpace=wrap;html=1;aspect=fixed;fillColor=#d5e8d4;strokeColor=#82b366;" parent="dN8stk25Ihq2inU-1iYE-107" vertex="1">
          <mxGeometry x="130" y="60" width="40" height="40" as="geometry" />
        </mxCell>
        <mxCell id="iaG5SXHKANnuLFrFsMLF-1" value="(0,0)" style="whiteSpace=wrap;html=1;aspect=fixed;fillColor=#f5f5f5;fontColor=#333333;strokeColor=#666666;" vertex="1" parent="1">
          <mxGeometry x="120" y="870" width="40" height="40" as="geometry" />
        </mxCell>
        <mxCell id="iaG5SXHKANnuLFrFsMLF-2" value="" style="whiteSpace=wrap;html=1;aspect=fixed;fillColor=#f5f5f5;fontColor=#333333;strokeColor=#666666;" vertex="1" parent="1">
          <mxGeometry x="160" y="870" width="40" height="40" as="geometry" />
        </mxCell>
        <mxCell id="iaG5SXHKANnuLFrFsMLF-3" value="" style="whiteSpace=wrap;html=1;aspect=fixed;fillColor=#f5f5f5;fontColor=#333333;strokeColor=#666666;" vertex="1" parent="1">
          <mxGeometry x="200" y="870" width="40" height="40" as="geometry" />
        </mxCell>
        <mxCell id="iaG5SXHKANnuLFrFsMLF-4" value="" style="whiteSpace=wrap;html=1;aspect=fixed;fillColor=#f5f5f5;fontColor=#333333;strokeColor=#666666;" vertex="1" parent="1">
          <mxGeometry x="240" y="870" width="40" height="40" as="geometry" />
        </mxCell>
        <mxCell id="iaG5SXHKANnuLFrFsMLF-5" value="" style="whiteSpace=wrap;html=1;aspect=fixed;fillColor=#f5f5f5;fontColor=#333333;strokeColor=#666666;" vertex="1" parent="1">
          <mxGeometry x="280" y="870" width="40" height="40" as="geometry" />
        </mxCell>
        <mxCell id="iaG5SXHKANnuLFrFsMLF-6" value="" style="whiteSpace=wrap;html=1;aspect=fixed;fillColor=#f5f5f5;fontColor=#333333;strokeColor=#666666;" vertex="1" parent="1">
          <mxGeometry x="120" y="910" width="40" height="40" as="geometry" />
        </mxCell>
        <mxCell id="iaG5SXHKANnuLFrFsMLF-7" value="" style="whiteSpace=wrap;html=1;aspect=fixed;fillColor=#d5e8d4;strokeColor=#82b366;dashed=1;" vertex="1" parent="1">
          <mxGeometry x="160" y="910" width="40" height="40" as="geometry" />
        </mxCell>
        <mxCell id="iaG5SXHKANnuLFrFsMLF-8" value="" style="whiteSpace=wrap;html=1;aspect=fixed;fillColor=#d5e8d4;strokeColor=#82b366;" vertex="1" parent="1">
          <mxGeometry x="200" y="910" width="40" height="40" as="geometry" />
        </mxCell>
        <mxCell id="iaG5SXHKANnuLFrFsMLF-9" value="" style="whiteSpace=wrap;html=1;aspect=fixed;fillColor=#f5f5f5;fontColor=#333333;strokeColor=#666666;" vertex="1" parent="1">
          <mxGeometry x="280" y="910" width="40" height="40" as="geometry" />
        </mxCell>
        <mxCell id="iaG5SXHKANnuLFrFsMLF-10" value="" style="whiteSpace=wrap;html=1;aspect=fixed;fillColor=#f5f5f5;fontColor=#333333;strokeColor=#666666;" vertex="1" parent="1">
          <mxGeometry x="120" y="950" width="40" height="40" as="geometry" />
        </mxCell>
        <mxCell id="iaG5SXHKANnuLFrFsMLF-11" value="" style="whiteSpace=wrap;html=1;aspect=fixed;fillColor=#d5e8d4;strokeColor=#82b366;" vertex="1" parent="1">
          <mxGeometry x="160" y="950" width="40" height="40" as="geometry" />
        </mxCell>
        <mxCell id="iaG5SXHKANnuLFrFsMLF-12" value="" style="whiteSpace=wrap;html=1;aspect=fixed;fillColor=#d5e8d4;strokeColor=#82b366;" vertex="1" parent="1">
          <mxGeometry x="240" y="950" width="40" height="40" as="geometry" />
        </mxCell>
        <mxCell id="iaG5SXHKANnuLFrFsMLF-13" value="" style="whiteSpace=wrap;html=1;aspect=fixed;fillColor=#f5f5f5;fontColor=#333333;strokeColor=#666666;" vertex="1" parent="1">
          <mxGeometry x="280" y="950" width="40" height="40" as="geometry" />
        </mxCell>
        <mxCell id="iaG5SXHKANnuLFrFsMLF-14" value="" style="whiteSpace=wrap;html=1;aspect=fixed;fillColor=#f5f5f5;fontColor=#333333;strokeColor=#666666;" vertex="1" parent="1">
          <mxGeometry x="120" y="990" width="40" height="40" as="geometry" />
        </mxCell>
        <mxCell id="iaG5SXHKANnuLFrFsMLF-15" value="" style="whiteSpace=wrap;html=1;aspect=fixed;fillColor=#d5e8d4;strokeColor=#82b366;" vertex="1" parent="1">
          <mxGeometry x="200" y="990" width="40" height="40" as="geometry" />
        </mxCell>
        <mxCell id="iaG5SXHKANnuLFrFsMLF-16" value="" style="whiteSpace=wrap;html=1;aspect=fixed;fillColor=#d5e8d4;strokeColor=#82b366;" vertex="1" parent="1">
          <mxGeometry x="240" y="990" width="40" height="40" as="geometry" />
        </mxCell>
        <mxCell id="iaG5SXHKANnuLFrFsMLF-17" value="" style="whiteSpace=wrap;html=1;aspect=fixed;fillColor=#f5f5f5;fontColor=#333333;strokeColor=#666666;" vertex="1" parent="1">
          <mxGeometry x="280" y="990" width="40" height="40" as="geometry" />
        </mxCell>
        <mxCell id="iaG5SXHKANnuLFrFsMLF-18" value="" style="whiteSpace=wrap;html=1;aspect=fixed;fillColor=#f5f5f5;fontColor=#333333;strokeColor=#666666;direction=west;" vertex="1" parent="1">
          <mxGeometry x="120" y="1030" width="40" height="40" as="geometry" />
        </mxCell>
        <mxCell id="iaG5SXHKANnuLFrFsMLF-19" value="" style="whiteSpace=wrap;html=1;aspect=fixed;fillColor=#f5f5f5;fontColor=#333333;strokeColor=#666666;" vertex="1" parent="1">
          <mxGeometry x="160" y="1030" width="40" height="40" as="geometry" />
        </mxCell>
        <mxCell id="iaG5SXHKANnuLFrFsMLF-20" value="" style="whiteSpace=wrap;html=1;aspect=fixed;fillColor=#f5f5f5;fontColor=#333333;strokeColor=#666666;" vertex="1" parent="1">
          <mxGeometry x="200" y="1030" width="40" height="40" as="geometry" />
        </mxCell>
        <mxCell id="iaG5SXHKANnuLFrFsMLF-21" value="" style="whiteSpace=wrap;html=1;aspect=fixed;fillColor=#f5f5f5;fontColor=#333333;strokeColor=#666666;" vertex="1" parent="1">
          <mxGeometry x="240" y="1030" width="40" height="40" as="geometry" />
        </mxCell>
        <mxCell id="iaG5SXHKANnuLFrFsMLF-22" value="" style="whiteSpace=wrap;html=1;aspect=fixed;fillColor=#f5f5f5;fontColor=#333333;strokeColor=#666666;" vertex="1" parent="1">
          <mxGeometry x="280" y="1030" width="40" height="40" as="geometry" />
        </mxCell>
        <mxCell id="iaG5SXHKANnuLFrFsMLF-23" value="&lt;font style=&quot;font-size: 14px;&quot;&gt;time : 0 | (2,2)&lt;/font&gt;" style="rounded=0;whiteSpace=wrap;html=1;fillColor=#f8cecc;strokeColor=#b85450;" vertex="1" parent="1">
          <mxGeometry x="140" y="1100" width="160" height="40" as="geometry" />
        </mxCell>
        <mxCell id="iaG5SXHKANnuLFrFsMLF-25" value="" style="rounded=0;whiteSpace=wrap;html=1;" vertex="1" parent="1">
          <mxGeometry x="140" y="1260" width="160" height="40" as="geometry" />
        </mxCell>
        <mxCell id="iaG5SXHKANnuLFrFsMLF-26" value="&lt;span style=&quot;font-size: 20px;&quot;&gt;&lt;b&gt;Event Queue&lt;/b&gt;&lt;/span&gt;" style="text;html=1;align=center;verticalAlign=middle;whiteSpace=wrap;rounded=0;" vertex="1" parent="1">
          <mxGeometry x="140" y="1070" width="160" height="30" as="geometry" />
        </mxCell>
        <mxCell id="iaG5SXHKANnuLFrFsMLF-27" value="&lt;span style=&quot;font-size: 20px;&quot;&gt;&lt;b&gt;Grid in time 1&lt;/b&gt;&lt;/span&gt;" style="text;html=1;align=center;verticalAlign=middle;whiteSpace=wrap;rounded=0;" vertex="1" parent="1">
          <mxGeometry x="130" y="840" width="190" height="30" as="geometry" />
        </mxCell>
        <mxCell id="iaG5SXHKANnuLFrFsMLF-28" value="" style="group" vertex="1" connectable="0" parent="1">
          <mxGeometry x="169.99999999999997" y="920" width="150.00000000000003" height="150" as="geometry" />
        </mxCell>
        <mxCell id="iaG5SXHKANnuLFrFsMLF-29" value="" style="shape=flexArrow;endArrow=classic;html=1;rounded=0;fillColor=#E6E6E6;strokeColor=default;dashed=1;" edge="1" parent="iaG5SXHKANnuLFrFsMLF-28">
          <mxGeometry width="50" height="50" relative="1" as="geometry">
            <mxPoint x="49.860000000000014" y="30" as="sourcePoint" />
            <mxPoint x="49.860000000000014" as="targetPoint" />
          </mxGeometry>
        </mxCell>
        <mxCell id="iaG5SXHKANnuLFrFsMLF-30" value="" style="shape=flexArrow;endArrow=classic;html=1;rounded=0;fillColor=#E6E6E6;strokeColor=default;dashed=1;" edge="1" parent="iaG5SXHKANnuLFrFsMLF-28">
          <mxGeometry width="50" height="50" relative="1" as="geometry">
            <mxPoint x="49.860000000000014" y="70" as="sourcePoint" />
            <mxPoint x="49.860000000000014" y="100" as="targetPoint" />
          </mxGeometry>
        </mxCell>
        <mxCell id="iaG5SXHKANnuLFrFsMLF-31" value="" style="shape=flexArrow;endArrow=classic;html=1;rounded=0;fillColor=#E6E6E6;strokeColor=default;dashed=1;" edge="1" parent="iaG5SXHKANnuLFrFsMLF-28">
          <mxGeometry width="50" height="50" relative="1" as="geometry">
            <mxPoint x="30" y="50.620000000000005" as="sourcePoint" />
            <mxPoint y="49.370000000000005" as="targetPoint" />
          </mxGeometry>
        </mxCell>
        <mxCell id="iaG5SXHKANnuLFrFsMLF-32" value="" style="shape=flexArrow;endArrow=classic;html=1;rounded=0;fillColor=#E6E6E6;strokeColor=default;dashed=1;" edge="1" parent="iaG5SXHKANnuLFrFsMLF-28">
          <mxGeometry width="50" height="50" relative="1" as="geometry">
            <mxPoint x="70" y="50.620000000000005" as="sourcePoint" />
            <mxPoint x="100" y="49.370000000000005" as="targetPoint" />
          </mxGeometry>
        </mxCell>
        <mxCell id="iaG5SXHKANnuLFrFsMLF-33" value="" style="shape=flexArrow;endArrow=classic;html=1;rounded=0;fillColor=#E6E6E6;strokeColor=default;dashed=1;" edge="1" parent="iaG5SXHKANnuLFrFsMLF-28">
          <mxGeometry width="50" height="50" relative="1" as="geometry">
            <mxPoint x="64" y="36" as="sourcePoint" />
            <mxPoint x="85" y="15" as="targetPoint" />
          </mxGeometry>
        </mxCell>
        <mxCell id="iaG5SXHKANnuLFrFsMLF-34" value="" style="shape=flexArrow;endArrow=classic;html=1;rounded=0;fillColor=#E6E6E6;strokeColor=default;dashed=1;" edge="1" parent="iaG5SXHKANnuLFrFsMLF-28">
          <mxGeometry width="50" height="50" relative="1" as="geometry">
            <mxPoint x="36" y="64" as="sourcePoint" />
            <mxPoint x="15" y="85" as="targetPoint" />
          </mxGeometry>
        </mxCell>
        <mxCell id="iaG5SXHKANnuLFrFsMLF-35" value="" style="shape=flexArrow;endArrow=classic;html=1;rounded=0;fillColor=#E6E6E6;strokeColor=default;dashed=1;" edge="1" parent="iaG5SXHKANnuLFrFsMLF-28">
          <mxGeometry width="50" height="50" relative="1" as="geometry">
            <mxPoint x="35" y="36" as="sourcePoint" />
            <mxPoint x="15" y="14" as="targetPoint" />
          </mxGeometry>
        </mxCell>
        <mxCell id="iaG5SXHKANnuLFrFsMLF-36" value="" style="shape=flexArrow;endArrow=classic;html=1;rounded=0;fillColor=#E6E6E6;strokeColor=default;dashed=1;" edge="1" parent="iaG5SXHKANnuLFrFsMLF-28">
          <mxGeometry width="50" height="50" relative="1" as="geometry">
            <mxPoint x="64" y="65" as="sourcePoint" />
            <mxPoint x="86" y="85" as="targetPoint" />
          </mxGeometry>
        </mxCell>
        <mxCell id="iaG5SXHKANnuLFrFsMLF-42" value="(4,4)" style="ellipse;whiteSpace=wrap;html=1;aspect=fixed;fillColor=#dae8fc;strokeColor=#6c8ebf;" vertex="1" parent="iaG5SXHKANnuLFrFsMLF-28">
          <mxGeometry x="110" y="110" width="40" height="40" as="geometry" />
        </mxCell>
        <mxCell id="iaG5SXHKANnuLFrFsMLF-37" value="(2,2)" style="whiteSpace=wrap;html=1;aspect=fixed;fillColor=#f8cecc;strokeColor=#b85450;" vertex="1" parent="1">
          <mxGeometry x="200" y="950" width="40" height="40" as="geometry" />
        </mxCell>
        <mxCell id="iaG5SXHKANnuLFrFsMLF-38" value="(1,3)" style="whiteSpace=wrap;html=1;aspect=fixed;fillColor=#f8cecc;strokeColor=#b85450;" vertex="1" parent="1">
          <mxGeometry x="160" y="990" width="40" height="40" as="geometry" />
        </mxCell>
        <mxCell id="iaG5SXHKANnuLFrFsMLF-39" value="(3,1)" style="whiteSpace=wrap;html=1;aspect=fixed;fillColor=#f8cecc;strokeColor=#b85450;" vertex="1" parent="1">
          <mxGeometry x="240" y="910" width="40" height="40" as="geometry" />
        </mxCell>
        <mxCell id="iaG5SXHKANnuLFrFsMLF-40" value="&lt;font style=&quot;font-size: 14px;&quot;&gt;time : 1 | (3,1)&lt;/font&gt;" style="rounded=0;whiteSpace=wrap;html=1;fillColor=#f8cecc;strokeColor=#b85450;" vertex="1" parent="1">
          <mxGeometry x="140" y="1140" width="160" height="40" as="geometry" />
        </mxCell>
        <mxCell id="iaG5SXHKANnuLFrFsMLF-41" value="&lt;font style=&quot;font-size: 14px;&quot;&gt;time : 1 | (1,3)&lt;/font&gt;" style="rounded=0;whiteSpace=wrap;html=1;fillColor=#f8cecc;strokeColor=#b85450;" vertex="1" parent="1">
          <mxGeometry x="140" y="1180" width="160" height="40" as="geometry" />
        </mxCell>
        <mxCell id="iaG5SXHKANnuLFrFsMLF-43" value="&lt;font style=&quot;font-size: 14px;&quot;&gt;time : 2| (5,5)&lt;/font&gt;" style="rounded=0;whiteSpace=wrap;html=1;fillColor=#dae8fc;strokeColor=#6c8ebf;" vertex="1" parent="1">
          <mxGeometry x="140" y="1220" width="160" height="40" as="geometry" />
        </mxCell>
        <mxCell id="iaG5SXHKANnuLFrFsMLF-44" value="" style="shape=image;verticalLabelPosition=bottom;labelBackgroundColor=default;verticalAlign=top;aspect=fixed;imageAspect=0;image=data:image/png,iVBORw0KGgoAAAANSUhEUgAAAwoAAABHCAYAAACnFrAOAAAAAXNSR0IArs4c6QAAAARnQU1BAACxjwv8YQUAAAAJcEhZcwAADsMAAA7DAcdvqGQAABM5SURBVHhe7d1piBzFG8fxzh/0jXj7SkTEuKCIKF4RNYJCTEzyRjRoEF8laFZF8IxHBCXGGDUKgpqEBCSI6xV842pMRMGoaNSwoqLgiSi+iTe+8sX+51fpZ1Oprr7m6JnZ/X6g052e2Zm+pqqe6qrqWZMtCQAAAAB4/pfOAQAAAGAKgQIAAACADAIFAAAAABkECgAAAAAyCBQAAAAAZBAoAAAAAMggUAAAAACQQaAAAAAAIINAAQAAAEAGgQIAAACADAIFAAAAABkECgAAAAAyCBQAAAAAZBAoAAAAAMggUAAAAACQQaAAAAAAIINAAQAAAEAGgQIAAACADAIFAAAAABkECgAAAAAyCBQAAAAAZBAoAAAAAMggUAAAAACQQaAAAAAAIINAAQAAAEAGgQIAAACADAIFAAAAABkECgAAAAAyCBQAAAAAZBAoAAAAAMggUAAAAACQQaAAAAAAIINAAQAAAEAGgQIAAACADAIFADPaZ599llx99dXJUUcdlSxYsCBdi3Y98sgjyaxZs5JzzjkneeGFF9K1AIBhRKAATAO//fabK6CddNJJyffff5+uRRkFCRdffLFb/uSTT5Lt27e75WGm60BTv9x5553J3r17k+XLlydLly5N7r333vSV/RREaBt13QIABheBAjDkVNidM2dO8vDDDyd33HFHcvjhh6evoMzGjRuTP/74I3nqqaeSE088MV3bOQVrukuhmnVNulOh81RGf6eCtQrS9rda1naG3nvvvan3+NPKlSvTd1SnAnv4OT69Hrvj4u+jJtvOo48+Orn++uuT0dHR5JlnnnHrfLfddpu7XkdGRpLXX389XQsAGDQECsAQsxrxI488MnnnnXdc4UyFNFSjgvn8+fO7esxUqD777LPdsmrWNWmdzlNZsDB79mxXsH7iiSeSycnJ5LvvvnOBzIoVK3rajEf7Pz4+nv4vcd/re/zxx912hBRg2b6OjY256893wgknRP9OAcY333zj9nfRokU0UQKAAUWgAAwpFXKt2czmzZuT008/3S2jnm+//TZd6g4rVD/00EOuAK5JBX+tW7t2bfqufHfddVdy4YUXumXd5XjwwQfd8k8//eTmIQUU4aTmP3UtXLjQzRU4+XdXdJ1pX1SoD2nftF+6c6DCfx36WzX10ueqiVKVOy4AMNPo7rHS11gzzjp097advmMECsCQuuGGG1wh7emnnyZIaNMll1ySqT3v1Isvvuju8PiFbSv479ixw83zxAr5hx12WLrUe9ru3bt3p//b57HHHnOBgPq/hNTU6Pfff09Wr16drjnQnj17ogGGUbDw7LPPuuUrrrjCzQEA+ypp1Nxz7ty5yZlnnpksW7YsfaU9aqKsZp8qOyg9VwBSRaOBgqIYvz1rOGnDtQNVN37YWFQY7m+7Hfp0PHUR+cdQ0aKiTl1g/aTv97crnLSdg3audT5i22qTjvWgdMDUcXvzzTddIaxuTa72QfuDJDn//PPdvJvXoQKPc889N/3ffqqpV2BX9/rZunWrK8BfeeWV6Zre0XZrG41+x2oKdfvtt6dr9tN+3H333e4uiQr8MX/++Wc0wPApiNKx0XFruglSLE9SX4xQ+B5N9K0A0A0PPPBAurSf7rCqWacqbiYmJlwFUlk/OqVJSr/y8jOl09bsU3mKApBKae5kw8bGxib1tZo2bNiQrp2cbGUSk+vWrZt6bXx8PH1lerD9bhXs3PKuXbsmr7rqKreudcLc/le1d+/eydYF5P62lcFOfZ7m+r99Zr+PofZJ26JpdHQ0Xbv/XGsb9do999yTvtJf/nHVtvlaP9SpY6v36L39ZNuic16VrhHbP00znc6hfoM6Jt2iY6xjq/MTsnOm91Sl86trUddfyP8uO6falzrXRMg+y+h3a79dvebvl9b7/4/Rb1vbX7bPSqv0vUofm6bj5R+/2G9b67Rt9r7plj8B6J/7778/XdrH0pu8tD+kMpWVJzVVyWP0HVYeKPuOxksLlrnlbZwyH73WjwyjV3QSrVAcBgSWMZdluD77G10YMfa6vjOW6TVJ26HJDwqNzr8dl0EJForOh46lbW9sf5riB2BVzq/eo+Nrf2PTTKdjoHQm/E0auxaqTMYvvIfs86ok4mK/j6JE3P8sP7NQIG527949uWbNmsmtW7ema/als/rsvPRI7Dqz9+g12y/bz7IMRixN97cpxn5bTRfC/TypKMiyY9PNwBIAwkDB0swq5Qy9x9JOm+rkMXp/WXm78T4Kf//9t5u3dizarlqjZEgrc3Lz6UBtfK3DX3jr6Oabb3ZzNSOp0plP79F75aabbnLzkH2mvvOrr75yy/126qmnpkv76fyr46aos2S/m0uJNQtR2/WQbttZk5JXX33VzfvhlVdecfNWwSW3yYfRLUi1S/z000/dqDatgmT6CloBlLu1m3dM1NG2lUZWmoz1RShS5T36navNvkayKup/4n+W0haNQiSbNm1yc9/BBx+cLuU766yz0qV9fWBaAWb0dvctt9ziXivrG6Nmbrq13cq4SjtYWxO61157zc2bYnmSzJs3L13Ksk7vS5YscXMA6DZr7tkqvGdGkfPpfWoO/eijj7p+iuvWrUtfqU7pt8qlKm8XNUFqPFD44osv3DzWhne6shNw0UUXubnPRhqRl156KV3K988//6RL+Zrs/FjEbyeXVzjy213v3LkzXeofPXRLrO36IHr55ZfdPBbMhN544w33bAUVenWtqUMU9lGQpWBb57ybfRRUCWLBvE9tTZX4l7EgYdu2baUF8ZAFjn5Fi/oDqVDvB0TKWNQJOQwC7BkcOh7a3ltvvdX936f0TJ8fey309ttvu7S+SnBk6WOlNrNdZHmSgsa8wFuZsh3TQU4bAAw3VSxLWaWe0mdV7Hz00UeukqXddGnx4sVuvmrVKjePaTxQUMYheYWcv/76y82rZKjDQBmudQ487rjj3DykmmFRrW+3HXrooelS8z744AM3t/2L8QsqecM/NsUvLJ5yyinp0oGsVtGveW1anWBmzZo1hbUS05HOo2rD1anLOp4qIY11IrZrtEpBtiqrGffvEKqgqXTg0ksvTdfEaRs15G0YJKjwHD7sTPsVPoHZ9lGF3k5oSFbd7QsLzvp8HVsFGmV3s+SII46oPPys/eZ0nKrcXe0Wy5OKzs3XX3+dLnX3WgEAn1WUXHbZZW6eR/mM8vcq6XARq6xWRUheutt4oGA1bbFCjjIhe4pnN5pIqMBgBYV2p079/PPP6VJ+4dMoQiyjTEo1lvL888+7ecgKPyos1K2R7CYNjShVC9W9CJTqsOOmIDX249P1ZLWKZT/iXvGDmWOPPTZdgtGIXxrJQRRQqVmQ0hINWXrjjTe69T4VEjstVIcsMFu+fLlL0zSpRl+/W3/0IBt9yi/saxtVUD7jjDMOSIf0nIEYPd3YrgkFI/fdd59bjo2iUYXdUVBaFBuKT8dUdwgsGCqjO1j+3Y0iflr1yy+/pEu9Z3nSaaed5uYx77//vpsXVXoAQCdUULeK5SYrJCxd+/DDD93c99ZbbzUbKPiFnFihWZmcDpIy1Cq3tYeBX0ueF/lZrbpdIGWee+45d4wUVKmQoQKCqECi/69cudIVftTcpJ9szPiiDNgXawvdpKKaRR1btcsWFfr6VavoB579Pl6DRjXd6uuiNpeq8bbjY3158p5h0GmNTEgFXrXJl2OOOcZNov4GRedMmYQCmqrUJlWFdgVGCiYU4Ko5kb7bb9JYh/Ulit1NMO20ha3KKkGsOVCv+XlSUXNYu3b6eScRwPRmBfWmW9RYvqQ8yqcgQZUkjQYKX375pZv7bUFVANPYr7qtbh04tLHdyLxVmAs7HdadmmAduKtSIUA1e4oCFRTomKmgoAKJ/q/1H3/8cdcLQHVYUwup2h+l7nHoNruj49dsaj90K1AdgnXMVUjS7b5+6XfzrEGlc6T0Q2mLggSfBVex61AJpGqUlQ51k9Ie/QYtHdH2hXf31LlXr1knX71u749NYeCvvws7XOt7OgliLc2MdTy27wr3o8iPP/44Vfivws6RNUHtNcuTxNLR2GTN/S644AI3B4Bus3Sv7Nkz3WZlLz33xliQcNBBBzUbKFi0okTXEmAVbhctWuTWb9iwwXXMyMuIVFOmGkN19vjhhx/StYOjqe1ToWbLli2ugKOgQKPZ6LvHxsZcQUnr1YEx1t6s7jbaA930BNY6rNCtQkJZLao5/vjj06X96m6vNeeo2jTC+Lf8VqxYMXV9qvCgmurrrrvONaEoGrmlqWMr3W4uE1Nnf2xf2p385jehKtuhcyRhkxv9VtavX++WbTQwn5oJ6RpVkx+7M4fO6bjrulbwpjs8ddVphqjzpoy16EFDeSxP0jb6AZc/6fozJ598crqUFbtO66YJADAIfv3113Sp4T4KViujAm2YGKu2Spl2US24an/++++/5N9//3VPqhs0TW3fNddc4zIftb3WcdMdBtUEqnCs/6sQqWOtNtKhOtuoTNfa79YdDvTdd99187K7CX6buNh76x5T3VGROk04xIaRVaHRrkkbPlMBhCL9ooBHmjq20sTdokH5vZVth+5IWpNF/RZUSNXxVX+FkZERF+CpEiLWHEeVElZY1LkOOwyjPgV9qgDavHmzS+t7fQdOwwXrHOsasH5GVVmeVHSXxO+7VJQGxK7TQfkNAUAd1157rUvvlH41Fiio1sc6tZV16s2j9rO6DXLIIYe4zn6Dpmz78mosrW18lVpiv4CpYCGkAqTVqioTVCHKV+cYKviwTi6XX365m1elZhdSNoSnChOi74llwnXPubWfrtsZPhbY+MdSx7qsxrmpY9uUOvsTNoGpOxXdqSnbDht3XwVF3Z1QIVWj9ii9Wbt2rXtcfdHITyokqsmO2vdrP9AZnUudU6UBde/stUNDLKsQr0CxzhCBfp503nnnuXlMlVGRJHad1k2/AGBQWLCgBL0R9pj8VmKerum9Xd4TN9udOuVvg5ZjWgVG93qrcJuuydcqCFfaNnuP3t80PQnYvj9vn8U/NkVPRG1Cq6CRe7xsG/v5NGZj51/XTDuqXj/DxH4//bjW0V12Ltu9vuuwPKnst2DvGYTfP4Dpx57M3En+XqWsmafsexu7o/D555+7eVlTlOnGH8JSt6FjrD2/xk+fDvynQRfdPVKtr7QuzkZqHvOoqYrVLMZqJLV9Euvz0S/aZgDtszzJft8x/m++6K4DAHTKhqeu+uyZbtGgE6Ln3sQ0FijY8HJVnibbLTaCRydTp3TbxpoUhUNPid+Jdt68eW5exO/wm1dw9dcXZYK9UvY8AlE7ZjWhUnOBcJSapqkDvdE1E7IhEa051SCwttUop47ORZ2lMXiaGIa0Sp7k96GqM9oTANRllRFWcdkUa1adV1ndSKCgjZjJBRtr564OtmHhXm2oRWPzh230YyPCKJhQ4Vrsb0O2XgFKPzK3sja9Gg1FnY61HwqeYn0TmmRt3PPYcyB0DZf1U+i12MhQM50VKv2Hj+mOi/rnaPQv9T/oR8CM+uzuqtWs9UrVPMkqd7h+APSaymtWvrO8rAnW7zX3rulkA0ZHR6faTml5JrJjoD4aahurNmS2rlWgd+36Q3bMwrbXExMT7nP0WisDm/q88fHxqTa+eZ/Za61IeGq7/Ta9Wq/ttO3TvB/bF/KPpSZtZ8jfp1ZAl67tD78dYmxbi+j68PdV+1L3MwaR9sHfL3/Sep1jDAc7b7pWe6lKnuT/1tSHaTr8VgAMHuujIJY21SlrKI9Tmc/SK5WvquZ7SmstjcvT80DBCob+pHUzkQrK/snUclEHTHtf7D0qZGu9/3madGz1Pf2gC846BccmbZsu/rodbXrFLwj4U2z7/P3SMe+nou0M5e1jOBVdh8NAiaIGA7D90fnSPg1CMIpqdA7t/PUyuIvlSWGmnPe7AYBu8wMFq5hUJVeZMH2KTWXlbcs3i8qNs/RP600AhoSa06jZRKsgXDisKDBM1ERs6dKl7ta7hqoFgJlI/er0sMpe5/FqCq9hm2fPnl3YgbrRB64B6NySJUvc3PqCANOBPcuknyOgAUC/rV692hXe1e8ub9CaTqkfnz2Ud9u2bW6eh0ABGDJ6wJSoAxLDpGK60B0FWbx4sZsDwEyk0SKt8K6RiLodLKjcsGDBAtcyYWxsrHTQGwIFYMholKj56SgsO3fudHNgmGmEKg0TrVq0hQsXpmsBYGZS4V0FeT17TM2DNPplp6MuKkBQhczIyIhLb3ft2lXpDi6BAjCEVq1adcAcGGZPPvmkm9tDGAFgplOl4Pbt212t/549e5ItW7akr7RHz4xav369G0Jfy7HnRsXQmRkYUrp1qOZHSkRo141hpfHC586dW9qhDgDQPAIFYEjpNuTZ3lO/eXIsho1uhc+ZM8c9iXRiYoJrGAAGDE2PgCGl25L25FiNXtCr0RGAXrAOdQoSqnSoAwA0j0ABGGIqXClYUMckjY6wceNGRkLCwLMOdQoSxsfHaToHAAOKpkfANKDgQB2dNm3alOzYscPdbQAGlR4aqOeBLFu2zA0FCAAYTAQKAAAAADJoegQAAAAgkCT/B+oM2h88yFITAAAAAElFTkSuQmCC;" vertex="1" parent="1">
          <mxGeometry x="400" y="1084.5" width="778" height="71" as="geometry" />
        </mxCell>
        <mxCell id="iaG5SXHKANnuLFrFsMLF-46" value="" style="shape=image;verticalLabelPosition=bottom;labelBackgroundColor=default;verticalAlign=top;aspect=fixed;imageAspect=0;image=data:image/png,iVBORw0KGgoAAAANSUhEUgAAAvAAAAAzCAYAAADxRTxJAAAAAXNSR0IArs4c6QAAAARnQU1BAACxjwv8YQUAAAAJcEhZcwAADsMAAA7DAcdvqGQAABFwSURBVHhe7Z1LiBzFH8c7f/DkQaM3EUHXgKKiaGLERyCCRmMQxUj0Jqz4Ogii8RFzUHwk8XER0SgJeJFVxIuwPiIYcFWML1ZUFOKqiHqKL8STh/znU+lftra2qqd6pmcyPfv9QFM9/ayu+k3Vt6p/Vb3sYIdCCCGEEEII0Qr+V4ZCCCGEEEKIFiABL4QQQgghRIuQgBdCCCGEEKJFSMALIYQQQgjRIiTghRBCCCGEaBES8EIIIYQQQrQICXghhBBCCCFahAS8EEIIIYQQLUICXgghhBBCiBYhAS+EEEIIIUSLkIAXQgghhBCiRUjACyGEEEII0SIk4MeE33//vXjiiSeKU089tfjhhx/KrUIIIWDVqlWujKSsFEKItiMBPwZ8+eWXxerVq4vt27cXmzdvLo455phyjxBCCLj77rtdGblixYrizTffLLcKIUQ7WXawQ7kuWgjife3atcXExESxa9eu4uyzzy73CCGE8KH3/Yorrig+++yzYmpqqrjhhhvKPUII0S4k4FsMrjIrV65063v37pV4F0KILiDieWM5NzdXzM7OqtwUQrQSudC0mDvuuKP4888/i+eee27JVEIffPCB6zV78MEHyy3z0LO2bNkyd4yoj9JvcCht+yOWfrjB4Nf+yiuvlFvyOP7444uXXnrJrV933XUuFEKIfqnSJ3XILdsk4FsKhvLOO+8415ml8BqYtw1U4pdccklx7rnnFpOTk+UekQIbQfRQEAgxSjRhm/Si49dORwaD931x342LL764WLduneuFr9sAEEIIn6b1SW7ZFhXwRIbCNbVQ6HLhOgWmaJZHH310QXgkYWYH7AJDGwT4+eMq9Mknn7hX3vfee29xyimnlHt7w5+1x+yahhD3Ghc++ugjFw5bwFN+kLYUaMcdd9zh9OX3Cy+8UB4lUsg286AnnXTZv39/sXz5cld51hHjd955pwu3bt3qQiGEqOLhhx8u1+bJ0Sd168Tssg0f+Bhzc3P4xrvl9ttvL7ce2r5jx46DnYu6fVu2bCn3iGHh582BAwfKrUeOTZs2LbKTpuD5JiYmnL11/hzl1jjr1q1z8ZiZmSm3xOE6ds3p6enD2/jN9lFI0yawfNm5c2e5pZrc9KvCrmH2wLVYWPe3LzVkmwtp2jZJl04l6o7pVk74kK6cY2kthBApHnrooXLtEDn6pN86sapsSwp4sIvHClmrVNgvET9caECR7hjGKIABp+ykX8zIc66dI5Jo/GC3sT8cdsz5U1NT5ZZ2Y/nSTTQauSKzCs5nieWX2W2/92gjss2FDMI2STOO4dq5WPlSVYEKIQSEAj5Hn7A/dUxunZgq27J84M8444xybR4GTd5///1u/fHHH3evCMRweO2111x46aWXuvBI8/3339MQLG699dZySzNgU88//7zz82/q2lUDf23+/K+++sqFbQY3jI4gdOv4+w6TVH51RFi5Nu9CIeaRbfYHadapUGv5ta9Zs8aF8oMXQtShjj7pt05MlW1JAe/7t6cK2Y0bN5ZrRfHuu++Wa2LQMIcxXHjhhS4cV5566ikXbtq0yYX9guHnDPz9/PPPy7X28u2337rQLyCGAQ05GnQxQlEq5pFtNsOGDRtcmOvXfvrpp7uQhtM4jTEQQgyWXH3SVJ0YK9uSAt5aA1WFrO+o//PPP5dr4wUNGRsJbAMPGISQqmRplYXHM1Cr6st/sXNYGODAdh+/YXXCCSeUa2kYIGHX9a9l92Q7z+MPpKCHjH022CI2JRLxsHiG1wauTxrZ9f3KkbSwOPGMqYrTWppXXnmlC/vFDD818Pfvv/924bHHHuvCNkGekYekJ+nKoBdAFJq9HulB534+n3TSSeXaPL5d5C4MDBoHZJvN2Ob69etdSE9VjiD3K9Bff/21XBNCiGqa0Cfd6kSfWNmWFPBffPGFC8877zwXdqOpnqGwgq67NClSEK5UNn/88UexZ88e15LauXOn662JQYbSg/bpp5+6eYY53l4VX3XVVVERT0Ywgpnr2zkHDhxw96GCY7vPL7/8Uq4tbEDFQFRT8e/bt8+NZOZ1D/eze/IbeJ7bbrvNbaeypaJlnz0nLlJmrAZvZWZnZ8tfCytCrkOrlPN27NjhrrNt2za3jziRFpYuPKPt8+Eadv8mXrNzPbvnZZdd5sIQs2GmgWoT5A2fh3/ggQeKa6+91j2nNbynp6eLN954w23DlsOG1jAhrwFbDPMAIe7bRS7j8BZKttmsbdr1P/74Yxd2A3uEr7/+2oVCCFFFU/qkqk6Msahs6wjGKAykYne3QVMcw9LUICC7Xq9LU4PjbHBB+FyMCGZ7OCCBWQzY3hHwi2aK8PeF2CCIWDozU0N4f3/QQxWdSnHBudybc9jOOtchnjY4goVtHQNx9+U49tt57Ith5/rpzoA7G4THc7GfbaxjV3Ys97HzQ0hftsfSLAVxD+Ni2CBAjklhcYkNNhlV7LkYpe7bnf1/yUfIycuq9OsX7m9xCmf84H5st3Q3u/Cfh3W2cY02Itscnm1amYod5WDXJr5CCJHCBrH2ok9CqurEFGHZFlWBFKwcxGKFbAo7LlXwthETFGSOX/Gk8DMiJsTteixhetatPEhnjqdSrIPdHwMIRYDFgWcIGwy2L5a/vvhPYfHluqSn//yWLjFRZudx/1wsrrFKnvRiX86SIxJGgVSj0fIlTNduhU5V+vWLXTtm5+S1b5PEL7RvawjWsYdRQrZ5iGHYZt2yw67dVtsSQgwHE/C96JMQK3fqdByE94260DAhPXQK2Uo3DV4jGDH/nU5h69wocPb/8ccfy62jQyp+zz77rAs3b97sJtTvxu7du93rlE7lUzkADX777bdy7RA2kwzxiE3onyInXobvVoQ7UDga2vIbf9RHHnnErYfE8tde43SMyYUx3nvvPRfikoOLkG9P33zzjQvPP/98Fw4K3IJs4G9HQNDaWLR0/hhuP+S+EsPtI+bGlbvgqpRDyk7tQzT4Tfv2YIMEL7/8chcaNptUpxHl0mRY4BrBq8JOI6547LHHyq3z8OELs0nGThC/8AM/77//vgt7mXkplvZ1liq3vH7LONnmIY6UbQohxLDpVifmEhXwVll2E1a+j2HsWATaf//9V/z7778L/KVHhVj8EBCvvvqqW8/xSQKb1nFTxmwp4cBTxAuZCPihU3H6DaMmMKEMVLY+VJbmy4XADhsG5qMVy1+LZ9U4CWsc8Iyh+LDzBz0dpokGSI36rpOHwyZmp/gWI3ZoZIeNRvv/VvlL+2MpBgmNUhpv5D/TI3bju+++c2GYTzYGY9R83vst42SbixmWbQohxLCpWydWERXwDMKEbsJq165dLqQHNtZTT6/KUUcdVRx99NHFOeecU24dHWLxM8FJb3q3QaLg96BddNFFLgzxBXTsmmTi1NSUq/AQzGvXrj0sWJpg7969LkQAhPdngCvwvKHAtp7H1JsYG2B71llnuTDEH+gRmwPVzh+0KDNBsHLlSheG0GizPLzmmmtcmAONr1iPae7y9ttvl1eqJmanNh94rGFl/9+qdE2JxSbBhmmU1imoPvzwQxdecMEFLgTfjmzavzrE0r7OUtXr3W8ZJ9tczDBsUwghhk0vdWIViwS8L0irClnEnR130003uTCEmQW2bNlS3HPPPcXJJ59cbq0m9jq3zlJnFppY/Gw6TKazy8HvQTvttNPKtYX4AjoFPVX79+93FTlihVcsVN4p6rxmtnyiYRBigil8pQ02lWhsn7k6QOpNjaUNDYCwUvbPz3UL6BXL05TbkX3DgHjmvnUZJjE7Tc365P9/w3R96623XEhjbdDwP7zxxhudPafcsmJYo863F7Mj4l3HdWwY9FLG+cg2DzFM2xRCiGHTa51YxSIB7wvSqt4um6+Y3vduft9LhVgvNZWWiZJuPWhU4vR8UVkj4u1tQAyrCLvhC2V6y0Ksso31etmr+5jwN1eHVO88VLlimTBJ+c/blydTH0BokieffNKFfFl41ARiitR84Pb/jfXommvYLbfc4sJBgc1dffXVLg7Yc5im7I+5ibEduw5twuwo1pAcd2Sb9fnpp59cWHfO/Nwpk4UQS5u6+qTXOjEkLNsWCXjrda3q7WKAFK4eiLcmXgP4xF7n1lkG2ZuLGK/ro45QRYyTnn5Dxz5aE0Kam+C1j7f4dJvsP8SENsTSxnzcfZcFwxoJMeFvcyanet+hyhXL3kqkKk2LjzU++sH+bDF8f93Jycly6+hjjaqwALH/bzgIlP8sz4kdDvo57U0TLnaxMoQBj/fdd1/5ax5r1IU2QeEG4+haIdts3jbNXmIdDzGso6QqL4QQwqirT3qtE0PCsm2RgLdZQ1K9XTjgcyMqFURYqve1rZhARtj6s8JQma5evdqJ+BNPPLHcekgUkxYQCnuOtY+TMEDUBwFM5luG+HAexES1f+/YuSEmtGM93b67USiO/H0m/PmwlX2MKvzQlzVufKwBEHPF+uuvv1xo6U3a+V98JT6WrnXcomJYOlq6GqSf5Q8flEk1WEeRjRs3uvTBhnw7tXxZs2aNCwHbtf/s66+/3tNzmouaf68Y7Cffaaz+888/Lu/8hbiwxLDe5nAsiTUyYw3JtiPb7N82Q6o6JWLY+IozzzzThUIIUUUdfdJPnRiyqGw76NEpcN0ckyz+vMxsZx7mjgg8PAdlzvzobWVlYl5mtsee2+bmZD9pBTMzM+53J5Ojc8NbWvrncO3by4n6CVNYfLhHN+w+xDEknFPUZ9ab4514Wf7b828pP9JCPNnGc/jPSdzs/Bh+vLjXxMSEC30sLbhXDnbNWLrYPotjt/xpA6QX8ee5+L+SD/abfTxjp+XvfvOsYfqGVKUf21lidmT49++2hPZNHtg+szGDuLOducX5r/BMsTiOMrLNwdmmjz//fA7cl+MtXkIIkcLmgYccfdJPnRgSK9sOqyt2siO8qC0UoES0bRVnL5DoljkspAvCJRQWPlS0JjTsHK5h4jyEdGS/fw4L6dyt0rZzqsSUYdclf0OsUkwZoIl0DDC8F89l9sJ1wsqP49lHXGPw/GbYVOSxdGKb3T+Hqkre8tTu2S1/2gLxJ59CO7JnJG1zRWBV+tk1q2yO8+y4bkt4HcuXmL1gu/7+Nopa2ebC/G/SNn2sUZB7XY7j+NwyRgixdPEFfI4+6adODImVbfHuUTHSmDimUht3EDI5xg25lfy4YmKkV7uoSj+2s6iXsjdkm4OzTcN602kc5GLlC6EQQtShjj7ph1TZFp0HXow2+JgC/lCh7+y4wXRLHaMttm/fXmvw8FLE5t9u+sNY5uPXEVFjOZBUDJ5B2aZBOXjzzTe7dXzpczHf0w0bNrhQCCFyGYY+qSrbJOBbCAOHEVNgM3eMKwxqM6Nl5LVEfBqbErTJwXgUHnfddZeb/urll18utwpRj0HYpoGNMoCegWJTU1PZjUwG5NsMYevXry+3CiFEHoPWJ93KNgn4lrJ169YF4TiD0WLATFnJ1x6Zdi5nBp6lho1QT31QrBf4UiiFVGzuWiFyGYRtUrnRg75ixQonxGdmZmp9k+SZZ55xoX3TRAgh6jIIfZJbtknAtxSmdqQXfm5uLnsKojbDWwdEJK1QpqPbvXt3uUeAtfyXL09/WKsXKJwk3kU/DMo29+3bVzz99NPFtm3b3Hqdb4DgFkajgt73OqJfCCFCmtYnuWXbMhzhy3XRMmjl4doAzMmf++pYjB804vhMM406ChIhRoVRs016t/imB50fs7OzKjeFEK1EAr7l0LuF7xU9SXzlS5WREELECX1K1fsuhGgrcqFpOQh2et/xk0LI89UvKikhhBDzmE8pPe/T09MS70KIVqMe+DEB0Y7f1Ysvvljs2bOnUV9TIYRoO6tWrSquv/76YnJyUmM6hBCtRwJeCCGEEEKIFiEXGiGEEEIIIVqEBLwQQgghhBAtQgJeCCGEEEKIFiEBL4QQQgghRGsoiv8DQ+ru94d42SkAAAAASUVORK5CYII=;" vertex="1" parent="1">
          <mxGeometry x="426" y="1155.5" width="752" height="51" as="geometry" />
        </mxCell>
        <mxCell id="iaG5SXHKANnuLFrFsMLF-47" value="" style="shape=image;verticalLabelPosition=bottom;labelBackgroundColor=default;verticalAlign=top;aspect=fixed;imageAspect=0;image=data:image/png,iVBORw0KGgoAAAANSUhEUgAAAqcAAABRCAYAAADvsQ8pAAAAAXNSR0IArs4c6QAAAARnQU1BAACxjwv8YQUAAAAJcEhZcwAADsMAAA7DAcdvqGQAABM7SURBVHhe7d17iBX1/8fx8felPyq6qP0RInZR/xCVorQiKzDyUooIFpsGERimBkI3KzVQvORqFwhLDQsR0rJMkbY2g4Q2RTNlo6SgzBDzj9jMkv7yj/3t6+28tznnzMyZs55znN3zfMDhMzuz57JnZs+8z3ven8+nX2eXAAAAAMiB/wtbAAAA4KIjOAUAAEBuEJwCAAAgNwhOAQAAkBsEpwAAAMgNglMAAADkBsEpAAAAcoPgFAAAALlBcAoAAIDcIDgFAABAbhCcAgAAIDcITgEAAJAbBKcAAADIDYJTAAAA5AbBKQAAAHKD4BQAAAC5QXAKAACA3CA4BQAAQG4QnAIoMHny5KBfv37dt6+//jrcAgBA7fXr7BIuA4BZvHhxsGrVKlvmIwIAUE9kTgGUGD16tLVjxoyxFgCAeiE4BVDi+++/t3bixInWAgBQLwSnAEocPnzY2nHjxlkLAEC9UHMKoIQ6QklHR0cwcOBAWwYAoB7InCKTP//803pxf/fdd+Ea9FXeO1/1pgpMf/3112D+/PkWsA4YMCBYs2aNba8GHVOffvpp+BMAAASnyMADU7WDBw8O16KvOnr0qLVjx461LyMKUtevX2/r/vrrr+D555+v2peUG2+8MZgyZUrw/vvvh2sAAI2O4BRlKTA9duxY0NrayiXeBrB3715rb7rppmDGjBnBvHnz7PJ+e3u7rZfPP/88XLowb731lj2+MrNk5QEAQnCKVBrv8ttvvw12795NYNogtL9l7dq1wZw5c4KVK1favlewOmnSJNs2ZMgQa6th+fLlVi6gQFjZeQBAYyM4RSLVHmogdmW27rrrrnAt+jLVlypLLsOGDQsWLlxoy84zptUs71Dgu3nzZnve1157LVwLAGhU9NZHIgUnp0+ftkyaagPR96n2c+bMmbasYDG633XZ/eabb7blWnxsqHxEwW9bWxtfhgCggZE5RSwFKQpOlDUlMG0cPvh+U1NTyX4/cOCAtX5pv9qam5utXbFihbUAgMZEcIpYS5YssXb27NnWojHs2bPH2vHjx1sb5R2l7r33XmurzWtalT314awAAI2H4BQlPGsalz1D3+adoUaOHGltlAeud955p7W1sGDBAmvJngJA46LmFCVUa6rgtKWlJXjggQfCtejrlK28++67bbn4Y6HW9aZR6rmv8VQ1dJWyqQCAxkLmFAUUoCgw7d+/P4Fpg9m/f7+1cTWlZ8+etXbo0KHWisYmVe/+anv44Yet3bhxo7UAgMZCcIoCW7dutdYDBDSOI0eOWHvrrbdaG0ejN2gsUgWmUouyj6lTp1rLrFEA0JgITlHAA4J77rnHWjQOrykdPXq0tVEa2kkZVV1uv/322+1yu2Z3qgXP2Ou5mHcfABoPNafoFq0rLB7jEqgnH/NUQ5nVKggGAOQTmVN089l/VFdIYIqLyYer8mwuAODiUX8UlftpSvMLoathY8eOLVu2VTY4VYeHfv36ldyUZYtSpqP4dy70j0B9ffnll9aqt34l/KD1/a77qyaxGvOkr1mzxh6zVnQc6x9Fz4P8GDVqlLXK4DPfPgDUxrJly8KleIoBFd9pJJdbbrmlZOxzbVfn1eIYUD/HBaAqC3vmmWcsRlCskDimtS7rl9N1gtClf7v179+/s729PdxSqKmpqfv3Fi1aFK5Fb6F9q33X3Nwcrilv27Ztdp+hQ4facltbW/dxoMfTsdMTepwxY8Z0H0/V1tHRYX+nP34lfzNqT58xvm90LAAAqm/p0qXhUil9Dus8nhT3TZo0qeAcqs9q3ebNm9e9XstxdA72c7xih2KZz/rlnkiiJ3s9MXoP7S/fd3EHShwFnh7QFgehftCqrYReh77Y+GvxWzXpn0fBdPTxCU7zh30DALWVFJzqXKzzZFJgKv4ZHRczROPBpARDNEAtfo5MNafRy2o+zEuc3377zVr16h04cKAto3f48ccfw6UgGDx4cLiU7pVXXrEe1XHz7/tMP6pjLS4BSaL0vlL+hw8ftgkANENVNek4VqnJtGnTgjlz5thzIL98TFX/XAEA1MdLL71kZVUvv/xy6mQoXcFl7NCTigOdj6FdTHHipk2bbHnGjBnWukzBaTRwUfCQxDsv1GrubdTOyZMnw6UguOKKK8KldGnDTkUH8N++fXu4lO6zzz4LnnvuuaC1tdXur/qWavr7778t8NUUnQsXLmSSgZzz2udaDPQPAIinz9z169dbguCJJ54I15bq7OwMDh06FP5UKBpHDBkyJFwqpcBXCS4FwtEa1UzBqUe9ipCTMqLKSunBpZZzb18MKvbViVJFvj74uGgH6met15SL0Rlt9H5om9Zre7nOYZ7V8+eJFhTrW0ncNxNlGv339bvFdF9//nIn+BMnToRL5w+WcvTcyppKUqbVvzkpIMxi5cqVqf8IF0rZXQW+jETQu0Sv3AAAaktXReVCrl5+8cUX1vbv3z+YMGGCLSfxK/JLliyxVjIFp96LW72akxw8eDBcOj9gd7V4oNbTW2JPsIwUYCrjpr9Pb7K+TegytW4K1vWzKFCbO3eurdfJVMGitnkAt2rVqtiea6L7DB8+3H5/xYoV9m1ENwVRM2fODD744IOCaSNFf9dTTz1lr0sHkC6fRx9fy7qvP3+1A7JopnXEiBHhUrxvvvkmXAKy85mqlOkGANSHxxL333+/tZVSTPPiiy9azLR3796yZZ5+FVMJTt1XMgWnPv5l2qxB+/bts1YBW1/h2UZdAtabqyykKF2t+ogXXngh6OjoCNrb22296L165JFHLJjUG63tHlhGs5NOzzF+/Hhb1k6MZkhnzZoVLpXO2rNu3ToLWvW6Hn30UVu3a9cua7VzFZhu2LDB6iqjtR9JKq3ri/4tSQeeB8QeIAOVuOqqq8IlAEA9KH7wc3YliUYl5TSGqRJ6msxHsYwSC1muxIrHKQcOHLC2bHDqUawo4InLTuqmzKBMnDjR2mrxLGJPbxeSxVVwFZ2dxssWlPJWbaQHrXrz/Y1dvXq13U/fPNRqu9fOxdGO1IFQruj4tttuC5fO88cXrwP2DNPjjz9uNRy6RK5vJLqUXY4H4tX8cnH99deHSwAAIO88OCy+WptG44Rfc801wZQpU+wKsDKmulXC4xkl6aRscBp9oXHBn99c3Lzcrq2tzYJYBXfHjx8P1+ZH2uuLlgecPn26pDbSL10ru7p8+XJbLlZcFKzAX5lW7cS4Wst//vnHWm33HRdHAbBnar22tadTPiZlQRtdJceujpW4L3CV3NLk/f8IANA7qYxR0pJqxR588EE7L+nW3NxscZDOUYpLouWGaTyZdebMGWszZ07TMmrRwK04wxd19OjR4Ny5c8G///5bcCk8L9Jen7Y5velRSmd7Gnzz5s0lAZ6XRRS/N96BKq6zk3ipRJZstO8ffWvR5X5UV56O3aTXEhfk5vkGAOj9lDzTVWrddEX5l19+sau3oivuPen7UzY49eGhvC4yjvfmV5ScluEbOXJkcMkllwSXX3651STkTdrr81SzOh8V/43eGUx/f3EZge+UuOynv7dJtbweZGYZUknPLaqDTdsHtZA0EoB3pOsLdciVHLs6BuKuLlRyS5P3/yMAQGOLXkHeunVruJRdanCqoMPrLHVCTJI1CNHcrIsWLQqeffbZ4IYbbgjXpovLuFRyqyRiT3t9Xs8ZF6SnZTg9cI/b5u9t3FBMet2+vdzQXMpuezbX90WtRV/TqVOnwqV4Hjj3Zj05dmsl6bXEBbl5vgEA+iZdQfa+OEkJrDSpwelPP/0ULqX32vJ6y7Tsam9WLkj3cTzjOjR9+OGH1lby3qhM4LHHHgt/Sn/v9bsaOUA986VewzYNGjQoXCoseYjq68cFAACovtTg1DOCaUMRRYcdSMuu9lRcxqWSW1pgl1W5IN1rSu+44w5rozzjmvbeeMcnp2nDPNNaLhv95JNPWuGyOlRpP2lfREdYqJSC3SxUOuCvzUseoqLHRbkBeAEAwMXnQ/ipbrQcXZ3WiENJPEGVZdZQH87y6quvtjY1OM3SscZ780s1AsE8+uGHH6yNC9KjZQPFmdPoNn9v1JteY4GJD7WwZcsWCwqVoVXnKLVeh+qdq7TdDwL1hFPwp59Vt/ree+/Zeh+03PeJP14WXqdayYDny5Yts1bHSXFArKGxRJefozWwek96UnKRRhMe6PGy/q0AAKCUJ9n8anE56oQdlxBTh28lqBTnqDd/OX7p36+0Jgan6v7vL06BUVxGTQ+2du3a8KfCYKwv8TrOuOjfa0rjAtfo3LJ6//SeqgTAxyX13mwK7jRGmGoz9Z57sCn+3iubqoBV77l2uDrC6KDYvXt3dwA7btw4a3fu3GmtAsPp06fbcjk9GZNUY6j636ADSn+fjgEFzfqblFl9+umnbXulFMBrzFinoN4P3iQ+BEUWeqzoN7633367+0sD8sGHNAEA1IeSbJ44yxrT6fyvYFS/7zGAZszU42hYyyydtEuuQHfGaG5uVm+FgltXoBFu/U/x7+jW1tYWbu07/G9raWkJ1/ynKyi1bV2BYLimkNZre9dOsvc1qqOjo7MruOvermWt823+2Hrv/X1V67+/bds2Wxflj9cV6Ma+3iTRfV4pvQ69Rr+/lov/VuevX7fiYyW6Le1W/Nj+Pqktx3+33A0XX/T4BwBU39KlS8Ol/3gckRTXuPb2djsf67NaMYmfP/WZrfseO3Ys/M10ilV0P8UtjrMwjAJMP7B0wPUmHsRs2LAhXINi2qdpXxqK6UNFH1D+gaO2qakp07GhLxn6XT+e9IET/eKVle9XtQCA+tDnv3/u14OfL6IJt9SaUzSO6HBWZ8+eDZfyTyUPKrru+ifKVNfSaPT+aGo5lYFkrSdW/VBXIGtlGho3tyvYtFalGnqctPIH3UdDXem5uj5o7L56LJWgDB8+vGxpRpQX5HstNQCg9nQZft68eVZCqPNHLel8o3OLyhoL+o2EQSoanLJaOhx0iysXyCvP7vW2bG89KIOprKXvV92yZE6VYY07DnRfrdf7HZcF1bdtbdPvFF/O6UkWVL+vW9ZsLwCgOvQZr/NHLc+veg4/3xQ/B5lTGHWqUvZRTpw4YW3eKSuoTJyGsoobY7ZR6X1RB7Jp06YFc+bMCVpaWsIt5SnzqaxnybfYLrNnz7ZW36Y/+ugjW47SXP/apm/cxQXwCxYssFZF73E9O4tFf6fcJBQAgOpSTLBjxw5bVoenLJ/bldB5SiPt+FW24nM4wSm6+dz/9Zpl6kLpn6e1tZXAtIh6uWtUCP3Ta55jjaqQ1a5du6yNm9FM7/ekcFSKTZs2WRulwFbipuONvobt27eHS8l+//33cCkIRowYES4BAOpF51adRxQbqKRLl/grKc2Ko6BU5wqVeSmZodKvuGEgCU7RzYfKyjL4LvJLWUsF7VmG7yim2h9JGlrMjxF9YEVp+BB90EjcdLziga3PqJbGxxZWBteHSgMA1JefT5TdPHLkSPDOO++EW3rm4MGDwauvvmpjoWs5aXx8glN08+Dh2LFjF/ztCL1PdJ+PGjUqXEoWvcxz8uTJcKl8pjPLFLuevY/L4AIA6kvZTWU8V65cGa7pGV1FO3TokM1qmZZ4IDhFt+jgu/Waox/5cerUqXApCK688spwqdCQIUPCpcJRHaJ1ykkfOJ7J9QxrGh+QeerUqdYCABoHwSkKeO3HV199ZS0QlXTJPouss5BFp/etpF4WANA3EJyiwKxZs6z1zi1Ave3bt8/auCJ5AEDfR3CKAipOVicUXXplrnlcDBqwX1STBABoPASnKLFixQprt2zZYi0aT7SDU9T+/fvDpeSOT0md6byTk2aMSqIvRPpipM55DBEGAI2J4BQldDlV2VMNK0Sv/cYRHdKj3EQMqgeNdnyKDpQf7VgVR8dWkjfeeMPaJUuWWAsAaDwEp4jl2dMLHdMMvYsHjhrPLo6vLx7iadCgQeFSEBw9ejRcKuQjQGi2kTj6IqRe+sqaJo19BwDo+whOEcuzp6r/I3vaOJqamqzds2ePtcV8/fTp0611GibKL9drOtliGhPVh5CaMGGCtcUWLVpkLVlTAGhsBKdItHnzZgsoNGc6GoPmz9cle+33jRs3hmvP089aryA0rif9smXLrFU5SPE8zJoNRBSAxs1cpRmmdD9tJ2sKAI3tf0u7hMtAAQ24fu7cueD1118P7rvvvoIB2NE7KOu9ePHi7ulGjx8/HgwbNszmNY6jwPS6664LduzYEXzyySfBZZddFnR2dtrQYgo+L7300uDjjz8Orr322vAe/9Fj/vHHH/ZcCjT1OGfOnAlWr15tX3QU1L755pv2mFGaa1mD7Q8YMCB49913S7YDABpLv64TT2e4DMQaO3asTWn6888/M895LzF58uTuWZbSJP37K5O5bt267rn2VeKhOtPly5eXPQYUyGruZA+IFZQ+9NBDwcKFC+3nYvPnz7f7qByAHvoAAIJTlKXMloIdaW1tJUBF1ahUYO7cucG2bdsYdB8AYKg5RVkKRj0oTRr/EqiUvvTs3LkzaGlpITAFAHQjcwoAAIDcIHMKAACA3CA4BQAAQE4Ewf8DVRUmyNBw4yIAAAAASUVORK5CYII=;" vertex="1" parent="1">
          <mxGeometry x="499" y="1206.5" width="679" height="81" as="geometry" />
        </mxCell>
      </root>
    </mxGraphModel>
  </diagram>
</mxfile>
